<?xml version="1.0" encoding="UTF-8" standalone="no"?>
<svg
   width="261.23483pt"
   height="197.77586pt"
   viewBox="0 0 261.23483 197.77585"
   version="1.1"
   id="svg795"
   sodipodi:docname="layout_scene_5.svg"
   inkscape:version="1.2.2 (732a01da63, 2022-12-09, custom)"
   xmlns:inkscape="http://www.inkscape.org/namespaces/inkscape"
   xmlns:sodipodi="http://sodipodi.sourceforge.net/DTD/sodipodi-0.dtd"
   xmlns:xlink="http://www.w3.org/1999/xlink"
   xmlns="http://www.w3.org/2000/svg"
   xmlns:svg="http://www.w3.org/2000/svg"
   xmlns:rdf="http://www.w3.org/1999/02/22-rdf-syntax-ns#"
   xmlns:cc="http://creativecommons.org/ns#"
   xmlns:dc="http://purl.org/dc/elements/1.1/">
  <sodipodi:namedview
     id="namedview797"
     pagecolor="#ffffff"
     bordercolor="#000000"
     borderopacity="0.25"
     inkscape:showpageshadow="2"
     inkscape:pageopacity="0.0"
     inkscape:pagecheckerboard="0"
     inkscape:deskcolor="#d1d1d1"
     inkscape:document-units="pt"
     showgrid="false"
     inkscape:zoom="1.1202751"
     inkscape:cx="363.74994"
     inkscape:cy="223.60579"
     inkscape:window-width="1846"
     inkscape:window-height="1016"
     inkscape:window-x="74"
     inkscape:window-y="27"
     inkscape:window-maximized="1"
     inkscape:current-layer="svg795" />
  <metadata
     id="metadata198">
    <rdf:RDF>
      <cc:Work>
        <dc:type
           rdf:resource="http://purl.org/dc/dcmitype/StillImage" />
        <dc:date>2023-05-20T00:17:56.600114</dc:date>
        <dc:format>image/svg+xml</dc:format>
        <dc:creator>
          <cc:Agent>
            <dc:title>Matplotlib v3.7.1, https://matplotlib.org/</dc:title>
          </cc:Agent>
        </dc:creator>
      </cc:Work>
    </rdf:RDF>
  </metadata>
  <defs
     id="defs202">
    <style
       type="text/css"
       id="style200">*{stroke-linejoin: round; stroke-linecap: butt}</style>
  </defs>
  <g
     id="axes_1"
     transform="matrix(0.51646821,0,0,0.51646821,-10.724946,-13.744807)">
    <g
       id="patch_2">
      <path
         d="M 73.08,309.5064 H 526.176 V 41.7312 H 73.08 Z"
         style="fill:#ffffff"
         id="path207" />
    </g>
    <g
       id="patch_3">
      <path
         d="M 93.675273,309.5064 H 131.12122 V 218.82786 H 93.675273 Z"
         clip-path="url(#p53498a6da4)"
         style="fill:#db5e56"
         id="path210" />
    </g>
    <g
       id="patch_4">
      <path
         d="m 140.48271,309.5064 h 37.44595 V 54.4824 h -37.44595 z"
         clip-path="url(#p53498a6da4)"
         style="fill:#dbb756"
         id="path213" />
    </g>
    <g
       id="patch_5">
      <path
         d="M 187.29015,309.5064 H 224.7361 V 280.8027 H 187.29015 Z"
         clip-path="url(#p53498a6da4)"
         style="fill:#a7db56"
         id="path216" />
    </g>
    <g
       id="patch_6">
      <path
         d="m 234.09759,309.5064 h 37.44595 v -41.90002 h -37.44595 z"
         clip-path="url(#p53498a6da4)"
         style="fill:#56db5e"
         id="path219" />
    </g>
    <g
       id="patch_7">
      <path
         d="m 280.90503,309.5064 h 37.44594 v -18.3928 h -37.44594 z"
         clip-path="url(#p53498a6da4)"
         style="fill:#56dbb7"
         id="path222" />
    </g>
    <g
       id="patch_8">
      <path
         d="m 327.71246,309.5064 h 37.44595 v -68.77129 h -37.44595 z"
         clip-path="url(#p53498a6da4)"
         style="fill:#56a7db"
         id="path225" />
    </g>
    <g
       id="patch_9">
      <path
         d="m 374.5199,309.5064 h 37.44595 V 291.31873 H 374.5199 Z"
         clip-path="url(#p53498a6da4)"
         style="fill:#5e56db"
         id="path228" />
    </g>
    <g
       id="patch_10">
      <path
         d="m 421.32734,309.5064 h 37.44595 v -50.35114 h -37.44595 z"
         clip-path="url(#p53498a6da4)"
         style="fill:#b756db"
         id="path231" />
    </g>
    <g
       id="patch_11">
      <path
         d="m 468.13478,309.5064 h 37.44595 v -12.95017 h -37.44595 z"
         clip-path="url(#p53498a6da4)"
         style="fill:#db56a7"
         id="path234" />
    </g>
    <g
       id="matplotlib.axis_1">
      <g
         id="xtick_1">
        <g
           id="line2d_1">
          <defs
             id="defs238">
            <path
               id="mcc1aa56060"
               d="M 0,0 V 3.5"
               style="stroke:#000000;stroke-width:0.8" />
          </defs>
          <g
             id="g242">
            <use
               xlink:href="#mcc1aa56060"
               x="112.39825"
               y="309.50641"
               style="stroke:#000000;stroke-width:0.8"
               id="use240" />
          </g>
        </g>
        <g
           id="text_1">
          <!-- Asphalt -->
          <g
             transform="matrix(0.07071068,-0.07071068,-0.07071068,-0.07071068,101.06907,348.44)"
             id="g268">
            <defs
               id="defs252">
              <path
                 id="DejaVuSans-41"
                 d="M 2188,4044 1331,1722 h 1716 z m -357,622 h 716 L 4325,0 H 3669 L 3244,1197 H 1141 L 716,0 H 50 Z"
                 transform="scale(0.015625)" />
              <path
                 id="DejaVuSans-73"
                 d="m 2834,3397 v -544 q -243,125 -506,187 -262,63 -544,63 -428,0 -642,-131 -214,-131 -214,-394 0,-200 153,-314 153,-114 616,-217 l 197,-44 q 612,-131 870,-370 258,-239 258,-667 0,-488 -386,-773 Q 2250,-91 1575,-91 1294,-91 989,-36 684,19 347,128 v 594 q 319,-166 628,-249 309,-82 613,-82 406,0 624,139 219,139 219,392 0,234 -158,359 -157,125 -692,241 l -200,47 q -534,112 -772,345 -237,233 -237,639 0,494 350,762 350,269 994,269 318,0 599,-47 282,-46 519,-140 z"
                 transform="scale(0.015625)" />
              <path
                 id="DejaVuSans-70"
                 d="M 1159,525 V -1331 H 581 v 4831 h 578 v -531 q 182,312 458,463 277,152 661,152 638,0 1036,-506 399,-506 399,-1331 0,-825 -399,-1332 -398,-506 -1036,-506 -384,0 -661,152 -276,152 -458,464 z m 1957,1222 q 0,634 -261,995 -261,361 -717,361 -457,0 -718,-361 -261,-361 -261,-995 0,-634 261,-995 261,-361 718,-361 456,0 717,361 261,361 261,995 z"
                 transform="scale(0.015625)" />
              <path
                 id="DejaVuSans-68"
                 d="M 3513,2113 V 0 h -575 v 2094 q 0,497 -194,743 -194,247 -581,247 -466,0 -735,-297 -269,-296 -269,-809 V 0 H 581 v 4863 h 578 V 2956 q 207,316 486,472 280,156 646,156 603,0 912,-373 310,-373 310,-1098 z"
                 transform="scale(0.015625)" />
              <path
                 id="DejaVuSans-61"
                 d="m 2194,1759 q -697,0 -966,-159 -269,-159 -269,-544 0,-306 202,-486 202,-179 548,-179 479,0 768,339 289,339 289,901 v 128 z m 1147,238 V 0 H 2766 V 531 Q 2569,213 2275,61 1981,-91 1556,-91 q -537,0 -855,302 -317,302 -317,808 0,590 395,890 396,300 1180,300 h 807 v 57 q 0,397 -261,614 -261,217 -733,217 -300,0 -585,-72 -284,-72 -546,-216 v 532 q 315,122 612,182 297,61 578,61 760,0 1135,-394 375,-393 375,-1193 z"
                 transform="scale(0.015625)" />
              <path
                 id="DejaVuSans-6c"
                 d="m 603,4863 h 575 V 0 H 603 Z"
                 transform="scale(0.015625)" />
              <path
                 id="DejaVuSans-74"
                 d="M 1172,4494 V 3500 H 2356 V 3053 H 1172 V 1153 q 0,-428 117,-550 117,-122 477,-122 h 590 V 0 H 1766 Q 1100,0 847,248 594,497 594,1153 V 3053 H 172 v 447 h 422 v 994 z"
                 transform="scale(0.015625)" />
            </defs>
            <use
               xlink:href="#DejaVuSans-41"
               id="use254" />
            <use
               xlink:href="#DejaVuSans-73"
               x="68.408203"
               id="use256" />
            <use
               xlink:href="#DejaVuSans-70"
               x="120.50781"
               id="use258" />
            <use
               xlink:href="#DejaVuSans-68"
               x="183.98438"
               id="use260" />
            <use
               xlink:href="#DejaVuSans-61"
               x="247.36328"
               id="use262" />
            <use
               xlink:href="#DejaVuSans-6c"
               x="308.64258"
               id="use264" />
            <use
               xlink:href="#DejaVuSans-74"
               x="336.42578"
               id="use266" />
          </g>
        </g>
      </g>
      <g
         id="xtick_2">
        <g
           id="line2d_2">
          <g
             id="g274">
            <use
               xlink:href="#mcc1aa56060"
               x="159.20569"
               y="309.50641"
               style="stroke:#000000;stroke-width:0.8"
               id="use272" />
          </g>
        </g>
        <g
           id="text_2">
          <!-- Meadows -->
          <g
             transform="matrix(0.07071068,-0.07071068,-0.07071068,-0.07071068,144.62327,354.94649)"
             id="g298">
            <defs
               id="defs282">
              <path
                 id="DejaVuSans-4d"
                 d="m 628,4666 h 941 L 2759,1491 3956,4666 h 941 V 0 H 4281 V 4097 L 3078,897 H 2444 L 1241,4097 V 0 H 628 Z"
                 transform="scale(0.015625)" />
              <path
                 id="DejaVuSans-65"
                 d="M 3597,1894 V 1613 H 953 q 38,-594 358,-905 320,-311 892,-311 331,0 642,81 311,81 618,244 V 178 Q 3153,47 2828,-22 2503,-91 2169,-91 1331,-91 842,396 353,884 353,1716 q 0,859 464,1363 464,505 1252,505 706,0 1117,-455 411,-454 411,-1235 z m -575,169 q -6,471 -264,752 -258,282 -683,282 -481,0 -770,-272 -289,-272 -333,-766 z"
                 transform="scale(0.015625)" />
              <path
                 id="DejaVuSans-64"
                 d="m 2906,2969 v 1894 h 575 V 0 H 2906 V 525 Q 2725,213 2448,61 2172,-91 1784,-91 1150,-91 751,415 353,922 353,1747 q 0,825 398,1331 399,506 1033,506 388,0 664,-152 277,-151 458,-463 z M 947,1747 q 0,-634 261,-995 261,-361 717,-361 456,0 718,361 263,361 263,995 0,634 -263,995 -262,361 -718,361 -456,0 -717,-361 -261,-361 -261,-995 z"
                 transform="scale(0.015625)" />
              <path
                 id="DejaVuSans-6f"
                 d="m 1959,3097 q -462,0 -731,-361 -269,-361 -269,-989 0,-628 267,-989 268,-361 733,-361 460,0 728,362 269,363 269,988 0,622 -269,986 -268,364 -728,364 z m 0,487 q 750,0 1178,-488 429,-487 429,-1349 Q 3566,888 3137,398 2709,-91 1959,-91 1206,-91 779,398 353,888 353,1747 q 0,862 426,1349 427,488 1180,488 z"
                 transform="scale(0.015625)" />
              <path
                 id="DejaVuSans-77"
                 d="m 269,3500 h 575 l 719,-2731 715,2731 h 678 l 719,-2731 716,2731 h 575 L 4050,0 H 3372 L 2619,2869 1863,0 h -679 z"
                 transform="scale(0.015625)" />
            </defs>
            <use
               xlink:href="#DejaVuSans-4d"
               id="use284" />
            <use
               xlink:href="#DejaVuSans-65"
               x="86.279297"
               id="use286" />
            <use
               xlink:href="#DejaVuSans-61"
               x="147.80273"
               id="use288" />
            <use
               xlink:href="#DejaVuSans-64"
               x="209.08203"
               id="use290" />
            <use
               xlink:href="#DejaVuSans-6f"
               x="272.55859"
               id="use292" />
            <use
               xlink:href="#DejaVuSans-77"
               x="333.74023"
               id="use294" />
            <use
               xlink:href="#DejaVuSans-73"
               x="415.52734"
               id="use296" />
          </g>
        </g>
      </g>
      <g
         id="xtick_3">
        <g
           id="line2d_3">
          <g
             id="g304">
            <use
               xlink:href="#mcc1aa56060"
               x="206.01312"
               y="309.50641"
               style="stroke:#000000;stroke-width:0.8"
               id="use302" />
          </g>
        </g>
        <g
           id="text_3">
          <!-- Gravel -->
          <g
             transform="matrix(0.07071068,-0.07071068,-0.07071068,-0.07071068,196.35449,345.09893)"
             id="g324">
            <defs
               id="defs310">
              <path
                 id="DejaVuSans-47"
                 d="M 3809,666 V 1919 H 2778 v 519 H 4434 V 434 Q 4069,175 3628,42 3188,-91 2688,-91 1594,-91 976,548 359,1188 359,2328 q 0,1144 617,1783 618,639 1712,639 456,0 867,-113 411,-112 758,-331 v -672 q -350,297 -744,447 -394,150 -828,150 -857,0 -1287,-478 -429,-478 -429,-1425 0,-944 429,-1422 430,-478 1287,-478 334,0 596,58 263,58 472,180 z"
                 transform="scale(0.015625)" />
              <path
                 id="DejaVuSans-72"
                 d="m 2631,2963 q -97,56 -211,82 -114,27 -251,27 -488,0 -749,-317 -261,-317 -261,-911 V 0 H 581 v 3500 h 578 v -544 q 182,319 472,473 291,155 707,155 59,0 131,-8 72,-7 159,-23 z"
                 transform="scale(0.015625)" />
              <path
                 id="DejaVuSans-76"
                 d="M 191,3500 H 800 L 1894,563 2988,3500 h 609 L 2284,0 h -781 z"
                 transform="scale(0.015625)" />
            </defs>
            <use
               xlink:href="#DejaVuSans-47"
               id="use312" />
            <use
               xlink:href="#DejaVuSans-72"
               x="77.490234"
               id="use314" />
            <use
               xlink:href="#DejaVuSans-61"
               x="118.60352"
               id="use316" />
            <use
               xlink:href="#DejaVuSans-76"
               x="179.88281"
               id="use318" />
            <use
               xlink:href="#DejaVuSans-65"
               x="239.0625"
               id="use320" />
            <use
               xlink:href="#DejaVuSans-6c"
               x="300.58594"
               id="use322" />
          </g>
        </g>
      </g>
      <g
         id="xtick_4">
        <g
           id="line2d_4">
          <g
             id="g330">
            <use
               xlink:href="#mcc1aa56060"
               x="252.82056"
               y="309.50641"
               style="stroke:#000000;stroke-width:0.8"
               id="use328" />
          </g>
        </g>
        <g
           id="text_4">
          <!-- Trees -->
          <g
             transform="matrix(0.07071068,-0.07071068,-0.07071068,-0.07071068,245.56719,340.28839)"
             id="g346">
            <defs
               id="defs334">
              <path
                 id="DejaVuSans-54"
                 d="M -19,4666 H 3928 V 4134 H 2272 V 0 H 1638 V 4134 H -19 Z"
                 transform="scale(0.015625)" />
            </defs>
            <use
               xlink:href="#DejaVuSans-54"
               id="use336" />
            <use
               xlink:href="#DejaVuSans-72"
               x="46.333984"
               id="use338" />
            <use
               xlink:href="#DejaVuSans-65"
               x="85.197266"
               id="use340" />
            <use
               xlink:href="#DejaVuSans-65"
               x="146.7207"
               id="use342" />
            <use
               xlink:href="#DejaVuSans-73"
               x="208.24414"
               id="use344" />
          </g>
        </g>
      </g>
      <g
         id="xtick_5">
        <g
           id="line2d_5">
          <g
             id="g352">
            <use
               xlink:href="#mcc1aa56060"
               x="299.62799"
               y="309.50641"
               style="stroke:#000000;stroke-width:0.8"
               id="use350" />
          </g>
        </g>
        <g
           id="text_5">
          <!-- Painted metal sheets -->
          <g
             transform="matrix(0.07071068,-0.07071068,-0.07071068,-0.07071068,264.34834,396.34096)"
             id="g402">
            <defs
               id="defs360">
              <path
                 id="DejaVuSans-50"
                 d="M 1259,4147 V 2394 h 794 q 441,0 681,228 241,228 241,650 0,419 -241,647 -240,228 -681,228 z m -631,519 h 1425 q 785,0 1186,-355 402,-355 402,-1039 0,-691 -402,-1044 -401,-353 -1186,-353 H 1259 V 0 H 628 Z"
                 transform="scale(0.015625)" />
              <path
                 id="DejaVuSans-69"
                 d="m 603,3500 h 575 V 0 H 603 Z m 0,1363 h 575 V 4134 H 603 Z"
                 transform="scale(0.015625)" />
              <path
                 id="DejaVuSans-6e"
                 d="M 3513,2113 V 0 h -575 v 2094 q 0,497 -194,743 -194,247 -581,247 -466,0 -735,-297 -269,-296 -269,-809 V 0 H 581 v 3500 h 578 v -544 q 207,316 486,472 280,156 646,156 603,0 912,-373 310,-373 310,-1098 z"
                 transform="scale(0.015625)" />
              <path
                 id="DejaVuSans-20"
                 transform="scale(0.015625)"
                 d="" />
              <path
                 id="DejaVuSans-6d"
                 d="m 3328,2828 q 216,388 516,572 300,184 706,184 547,0 844,-383 297,-382 297,-1088 V 0 h -578 v 2094 q 0,503 -179,746 -178,244 -543,244 -447,0 -707,-297 -259,-296 -259,-809 V 0 h -578 v 2094 q 0,506 -178,748 -178,242 -550,242 -441,0 -701,-298 -259,-298 -259,-808 V 0 H 581 v 3500 h 578 v -544 q 197,322 472,475 275,153 653,153 382,0 649,-194 267,-193 395,-562 z"
                 transform="scale(0.015625)" />
            </defs>
            <use
               xlink:href="#DejaVuSans-50"
               id="use362" />
            <use
               xlink:href="#DejaVuSans-61"
               x="55.802734"
               id="use364" />
            <use
               xlink:href="#DejaVuSans-69"
               x="117.08203"
               id="use366" />
            <use
               xlink:href="#DejaVuSans-6e"
               x="144.86523"
               id="use368" />
            <use
               xlink:href="#DejaVuSans-74"
               x="208.24414"
               id="use370" />
            <use
               xlink:href="#DejaVuSans-65"
               x="247.45312"
               id="use372" />
            <use
               xlink:href="#DejaVuSans-64"
               x="308.97656"
               id="use374" />
            <use
               xlink:href="#DejaVuSans-20"
               x="372.45312"
               id="use376" />
            <use
               xlink:href="#DejaVuSans-6d"
               x="404.24023"
               id="use378" />
            <use
               xlink:href="#DejaVuSans-65"
               x="501.65234"
               id="use380" />
            <use
               xlink:href="#DejaVuSans-74"
               x="563.17578"
               id="use382" />
            <use
               xlink:href="#DejaVuSans-61"
               x="602.38477"
               id="use384" />
            <use
               xlink:href="#DejaVuSans-6c"
               x="663.66406"
               id="use386" />
            <use
               xlink:href="#DejaVuSans-20"
               x="691.44727"
               id="use388" />
            <use
               xlink:href="#DejaVuSans-73"
               x="723.23438"
               id="use390" />
            <use
               xlink:href="#DejaVuSans-68"
               x="775.33398"
               id="use392" />
            <use
               xlink:href="#DejaVuSans-65"
               x="838.71289"
               id="use394" />
            <use
               xlink:href="#DejaVuSans-65"
               x="900.23633"
               id="use396" />
            <use
               xlink:href="#DejaVuSans-74"
               x="961.75977"
               id="use398" />
            <use
               xlink:href="#DejaVuSans-73"
               x="1000.9688"
               id="use400" />
          </g>
        </g>
      </g>
      <g
         id="xtick_6">
        <g
           id="line2d_6">
          <g
             id="g408">
            <use
               xlink:href="#mcc1aa56060"
               x="346.43542"
               y="309.50641"
               style="stroke:#000000;stroke-width:0.8"
               id="use406" />
          </g>
        </g>
        <g
           id="text_6">
          <!-- Bare Soil -->
          <g
             transform="matrix(0.07071068,-0.07071068,-0.07071068,-0.07071068,332.74905,353.15442)"
             id="g433">
            <defs
               id="defs413">
              <path
                 id="DejaVuSans-42"
                 d="M 1259,2228 V 519 h 1013 q 509,0 754,211 246,211 246,645 0,438 -246,645 -245,208 -754,208 z m 0,1919 V 2741 h 935 q 462,0 688,173 227,174 227,530 0,353 -227,528 -226,175 -688,175 z m -631,519 h 1613 q 722,0 1112,-300 391,-300 391,-853 0,-429 -200,-682 -200,-253 -588,-315 466,-100 724,-418 258,-317 258,-792 0,-625 -425,-966 Q 3088,0 2303,0 H 628 Z"
                 transform="scale(0.015625)" />
              <path
                 id="DejaVuSans-53"
                 d="m 3425,4513 v -616 q -359,172 -678,256 -319,85 -616,85 -515,0 -795,-200 -280,-200 -280,-569 0,-310 186,-468 186,-157 705,-254 l 381,-78 q 706,-135 1042,-474 336,-339 336,-907 0,-679 -455,-1029 -454,-350 -1332,-350 -331,0 -705,75 -373,75 -773,222 v 650 q 384,-215 753,-325 369,-109 725,-109 540,0 834,212 294,213 294,607 0,343 -211,537 -211,194 -692,291 l -385,75 q -706,140 -1022,440 -315,300 -315,835 0,619 436,975 436,356 1201,356 329,0 669,-60 341,-59 697,-177 z"
                 transform="scale(0.015625)" />
            </defs>
            <use
               xlink:href="#DejaVuSans-42"
               id="use415" />
            <use
               xlink:href="#DejaVuSans-61"
               x="68.603516"
               id="use417" />
            <use
               xlink:href="#DejaVuSans-72"
               x="129.88281"
               id="use419" />
            <use
               xlink:href="#DejaVuSans-65"
               x="168.74609"
               id="use421" />
            <use
               xlink:href="#DejaVuSans-20"
               x="230.26953"
               id="use423" />
            <use
               xlink:href="#DejaVuSans-53"
               x="262.05664"
               id="use425" />
            <use
               xlink:href="#DejaVuSans-6f"
               x="325.5332"
               id="use427" />
            <use
               xlink:href="#DejaVuSans-69"
               x="386.71484"
               id="use429" />
            <use
               xlink:href="#DejaVuSans-6c"
               x="414.49805"
               id="use431" />
          </g>
        </g>
      </g>
      <g
         id="xtick_7">
        <g
           id="line2d_7">
          <g
             id="g439">
            <use
               xlink:href="#mcc1aa56060"
               x="393.24289"
               y="309.50641"
               style="stroke:#000000;stroke-width:0.8"
               id="use437" />
          </g>
        </g>
        <g
           id="text_7">
          <!-- Bitumen -->
          <g
             transform="matrix(0.07071068,-0.07071068,-0.07071068,-0.07071068,380.29951,351.66839)"
             id="g459">
            <defs
               id="defs443">
              <path
                 id="DejaVuSans-75"
                 d="m 544,1381 v 2119 h 575 V 1403 q 0,-497 193,-746 194,-248 582,-248 465,0 735,297 271,297 271,810 v 1984 h 575 V 0 H 2900 V 538 Q 2691,219 2414,64 2138,-91 1772,-91 1169,-91 856,284 544,659 544,1381 Z m 1447,2203 z"
                 transform="scale(0.015625)" />
            </defs>
            <use
               xlink:href="#DejaVuSans-42"
               id="use445" />
            <use
               xlink:href="#DejaVuSans-69"
               x="68.603516"
               id="use447" />
            <use
               xlink:href="#DejaVuSans-74"
               x="96.386719"
               id="use449" />
            <use
               xlink:href="#DejaVuSans-75"
               x="135.5957"
               id="use451" />
            <use
               xlink:href="#DejaVuSans-6d"
               x="198.97461"
               id="use453" />
            <use
               xlink:href="#DejaVuSans-65"
               x="296.38672"
               id="use455" />
            <use
               xlink:href="#DejaVuSans-6e"
               x="357.91016"
               id="use457" />
          </g>
        </g>
      </g>
      <g
         id="xtick_8">
        <g
           id="line2d_8">
          <g
             id="g465">
            <use
               xlink:href="#mcc1aa56060"
               x="440.05032"
               y="309.50641"
               style="stroke:#000000;stroke-width:0.8"
               id="use463" />
          </g>
        </g>
        <g
           id="text_8">
          <!-- Self-Blocking Bricks -->
          <g
             transform="matrix(0.07071068,-0.07071068,-0.07071068,-0.07071068,407.55379,390.77471)"
             id="g515">
            <defs
               id="defs473">
              <path
                 id="DejaVuSans-66"
                 d="m 2375,4863 v -479 h -550 q -309,0 -430,-125 -120,-125 -120,-450 v -309 h 947 V 3053 H 1275 V 0 H 697 V 3053 H 147 v 447 h 550 v 244 q 0,584 272,851 272,268 862,268 z"
                 transform="scale(0.015625)" />
              <path
                 id="DejaVuSans-2d"
                 d="M 313,2009 H 1997 V 1497 H 313 Z"
                 transform="scale(0.015625)" />
              <path
                 id="DejaVuSans-63"
                 d="m 3122,3366 v -538 q -244,135 -489,202 -245,67 -495,67 -560,0 -870,-355 -309,-354 -309,-995 0,-641 309,-996 310,-354 870,-354 250,0 495,67 245,67 489,202 V 134 Q 2881,22 2623,-34 2366,-91 2075,-91 1284,-91 818,406 353,903 353,1747 q 0,856 470,1346 471,491 1290,491 265,0 518,-55 253,-54 491,-163 z"
                 transform="scale(0.015625)" />
              <path
                 id="DejaVuSans-6b"
                 d="m 581,4863 h 578 V 1991 l 1716,1509 h 734 L 1753,1863 3688,0 H 2938 L 1159,1709 V 0 H 581 Z"
                 transform="scale(0.015625)" />
              <path
                 id="DejaVuSans-67"
                 d="m 2906,1791 q 0,625 -258,968 -257,344 -723,344 -462,0 -720,-344 -258,-343 -258,-968 0,-622 258,-966 258,-344 720,-344 466,0 723,344 258,344 258,966 z M 3481,434 q 0,-893 -397,-1329 -396,-436 -1215,-436 -303,0 -572,45 -269,45 -522,139 v 559 q 253,-137 500,-202 247,-66 503,-66 566,0 847,295 281,295 281,892 V 616 Q 2728,306 2450,153 2172,0 1784,0 1141,0 747,490 353,981 353,1791 q 0,812 394,1302 394,491 1037,491 388,0 666,-153 278,-153 456,-462 v 531 h 575 z"
                 transform="scale(0.015625)" />
            </defs>
            <use
               xlink:href="#DejaVuSans-53"
               id="use475" />
            <use
               xlink:href="#DejaVuSans-65"
               x="63.476562"
               id="use477" />
            <use
               xlink:href="#DejaVuSans-6c"
               x="125"
               id="use479" />
            <use
               xlink:href="#DejaVuSans-66"
               x="152.7832"
               id="use481" />
            <use
               xlink:href="#DejaVuSans-2d"
               x="182.48828"
               id="use483" />
            <use
               xlink:href="#DejaVuSans-42"
               x="214.94727"
               id="use485" />
            <use
               xlink:href="#DejaVuSans-6c"
               x="283.55078"
               id="use487" />
            <use
               xlink:href="#DejaVuSans-6f"
               x="311.33398"
               id="use489" />
            <use
               xlink:href="#DejaVuSans-63"
               x="372.51562"
               id="use491" />
            <use
               xlink:href="#DejaVuSans-6b"
               x="427.49609"
               id="use493" />
            <use
               xlink:href="#DejaVuSans-69"
               x="485.40625"
               id="use495" />
            <use
               xlink:href="#DejaVuSans-6e"
               x="513.18945"
               id="use497" />
            <use
               xlink:href="#DejaVuSans-67"
               x="576.56836"
               id="use499" />
            <use
               xlink:href="#DejaVuSans-20"
               x="640.04492"
               id="use501" />
            <use
               xlink:href="#DejaVuSans-42"
               x="671.83203"
               id="use503" />
            <use
               xlink:href="#DejaVuSans-72"
               x="740.43555"
               id="use505" />
            <use
               xlink:href="#DejaVuSans-69"
               x="781.54883"
               id="use507" />
            <use
               xlink:href="#DejaVuSans-63"
               x="809.33203"
               id="use509" />
            <use
               xlink:href="#DejaVuSans-6b"
               x="864.3125"
               id="use511" />
            <use
               xlink:href="#DejaVuSans-73"
               x="922.22266"
               id="use513" />
          </g>
        </g>
      </g>
      <g
         id="xtick_9">
        <g
           id="line2d_9">
          <g
             id="g521">
            <use
               xlink:href="#mcc1aa56060"
               x="486.85776"
               y="309.50641"
               style="stroke:#000000;stroke-width:0.8"
               id="use519" />
          </g>
        </g>
        <g
           id="text_9">
          <!-- Shadows -->
          <g
             transform="matrix(0.07071068,-0.07071068,-0.07071068,-0.07071068,473.01614,353.46488)"
             id="g538">
            <use
               xlink:href="#DejaVuSans-53"
               id="use524" />
            <use
               xlink:href="#DejaVuSans-68"
               x="63.476562"
               id="use526" />
            <use
               xlink:href="#DejaVuSans-61"
               x="126.85547"
               id="use528" />
            <use
               xlink:href="#DejaVuSans-64"
               x="188.13477"
               id="use530" />
            <use
               xlink:href="#DejaVuSans-6f"
               x="251.61133"
               id="use532" />
            <use
               xlink:href="#DejaVuSans-77"
               x="312.79297"
               id="use534" />
            <use
               xlink:href="#DejaVuSans-73"
               x="394.58008"
               id="use536" />
          </g>
        </g>
      </g>
      <g
         id="text_10">
        <!-- Label -->
        <g
           transform="matrix(0.1,0,0,-0.1,286.13816,409.40996)"
           id="g556">
          <defs
             id="defs544">
            <path
               id="DejaVuSans-4c"
               d="m 628,4666 h 631 V 531 H 3531 V 0 H 628 Z"
               transform="scale(0.015625)" />
            <path
               id="DejaVuSans-62"
               d="m 3116,1747 q 0,634 -261,995 -261,361 -717,361 -457,0 -718,-361 -261,-361 -261,-995 0,-634 261,-995 261,-361 718,-361 456,0 717,361 261,361 261,995 z M 1159,2969 q 182,312 458,463 277,152 661,152 638,0 1036,-506 399,-506 399,-1331 Q 3713,922 3314,415 2916,-91 2278,-91 1894,-91 1617,61 1341,213 1159,525 V 0 H 581 v 4863 h 578 z"
               transform="scale(0.015625)" />
          </defs>
          <use
             xlink:href="#DejaVuSans-4c"
             id="use546" />
          <use
             xlink:href="#DejaVuSans-61"
             x="55.712891"
             id="use548" />
          <use
             xlink:href="#DejaVuSans-62"
             x="116.99219"
             id="use550" />
          <use
             xlink:href="#DejaVuSans-65"
             x="180.46875"
             id="use552" />
          <use
             xlink:href="#DejaVuSans-6c"
             x="241.99219"
             id="use554" />
        </g>
      </g>
    </g>
    <g
       id="matplotlib.axis_2">
      <g
         id="ytick_1">
        <g
           id="line2d_10">
          <defs
             id="defs561">
            <path
               id="m3874d2070e"
               d="M 0,0 H -3.5"
               style="stroke:#000000;stroke-width:0.8" />
          </defs>
          <g
             id="g565">
            <use
               xlink:href="#m3874d2070e"
               x="73.080002"
               y="309.50641"
               style="stroke:#000000;stroke-width:0.8"
               id="use563" />
          </g>
        </g>
        <g
           id="text_11">
          <!-- 0 -->
          <g
             transform="matrix(0.1,0,0,-0.1,59.7175,313.30562)"
             id="g573">
            <defs
               id="defs569">
              <path
                 id="DejaVuSans-30"
                 d="m 2034,4250 q -487,0 -733,-480 -245,-479 -245,-1442 0,-959 245,-1439 246,-480 733,-480 491,0 736,480 246,480 246,1439 0,963 -246,1442 -245,480 -736,480 z m 0,500 q 785,0 1199,-621 414,-620 414,-1801 0,-1178 -414,-1799 -414,-620 -1199,-620 -784,0 -1198,620 -414,621 -414,1799 0,1181 414,1801 414,621 1198,621 z"
                 transform="scale(0.015625)" />
            </defs>
            <use
               xlink:href="#DejaVuSans-30"
               id="use571" />
          </g>
        </g>
      </g>
      <g
         id="ytick_2">
        <g
           id="line2d_11">
          <g
             id="g579">
            <use
               xlink:href="#m3874d2070e"
               x="73.080002"
               y="275.31903"
               style="stroke:#000000;stroke-width:0.8"
               id="use577" />
          </g>
        </g>
        <g
           id="text_12">
          <!-- 2500 -->
          <g
             transform="matrix(0.1,0,0,-0.1,40.63,279.11826)"
             id="g594">
            <defs
               id="defs584">
              <path
                 id="DejaVuSans-32"
                 d="M 1228,531 H 3431 V 0 H 469 v 531 q 359,372 979,998 621,627 780,809 303,340 423,576 121,236 121,464 0,372 -261,606 -261,235 -680,235 -297,0 -627,-103 -329,-103 -704,-313 v 638 q 381,153 712,231 332,78 607,78 725,0 1156,-363 431,-362 431,-968 0,-288 -108,-546 -107,-257 -392,-607 -78,-91 -497,-524 Q 1991,1309 1228,531 Z"
                 transform="scale(0.015625)" />
              <path
                 id="DejaVuSans-35"
                 d="M 691,4666 H 3169 V 4134 H 1269 V 2991 q 137,47 274,70 138,23 276,23 781,0 1237,-428 457,-428 457,-1159 Q 3513,744 3044,326 2575,-91 1722,-91 1428,-91 1123,-41 819,9 494,109 v 635 q 281,-153 581,-228 300,-75 634,-75 541,0 856,284 316,284 316,772 0,487 -316,771 -315,285 -856,285 -253,0 -505,-56 -251,-56 -513,-175 z"
                 transform="scale(0.015625)" />
            </defs>
            <use
               xlink:href="#DejaVuSans-32"
               id="use586" />
            <use
               xlink:href="#DejaVuSans-35"
               x="63.623047"
               id="use588" />
            <use
               xlink:href="#DejaVuSans-30"
               x="127.24609"
               id="use590" />
            <use
               xlink:href="#DejaVuSans-30"
               x="190.86914"
               id="use592" />
          </g>
        </g>
      </g>
      <g
         id="ytick_3">
        <g
           id="line2d_12">
          <g
             id="g600">
            <use
               xlink:href="#m3874d2070e"
               x="73.080002"
               y="241.13168"
               style="stroke:#000000;stroke-width:0.8"
               id="use598" />
          </g>
        </g>
        <g
           id="text_13">
          <!-- 5000 -->
          <g
             transform="matrix(0.1,0,0,-0.1,40.63,244.93091)"
             id="g611">
            <use
               xlink:href="#DejaVuSans-35"
               id="use603" />
            <use
               xlink:href="#DejaVuSans-30"
               x="63.623047"
               id="use605" />
            <use
               xlink:href="#DejaVuSans-30"
               x="127.24609"
               id="use607" />
            <use
               xlink:href="#DejaVuSans-30"
               x="190.86914"
               id="use609" />
          </g>
        </g>
      </g>
      <g
         id="ytick_4">
        <g
           id="line2d_13">
          <g
             id="g617">
            <use
               xlink:href="#m3874d2070e"
               x="73.080002"
               y="206.94434"
               style="stroke:#000000;stroke-width:0.8"
               id="use615" />
          </g>
        </g>
        <g
           id="text_14">
          <!-- 7500 -->
          <g
             transform="matrix(0.1,0,0,-0.1,40.63,210.74355)"
             id="g631">
            <defs
               id="defs621">
              <path
                 id="DejaVuSans-37"
                 d="M 525,4666 H 3525 V 4397 L 1831,0 H 1172 L 2766,4134 H 525 Z"
                 transform="scale(0.015625)" />
            </defs>
            <use
               xlink:href="#DejaVuSans-37"
               id="use623" />
            <use
               xlink:href="#DejaVuSans-35"
               x="63.623047"
               id="use625" />
            <use
               xlink:href="#DejaVuSans-30"
               x="127.24609"
               id="use627" />
            <use
               xlink:href="#DejaVuSans-30"
               x="190.86914"
               id="use629" />
          </g>
        </g>
      </g>
      <g
         id="ytick_5">
        <g
           id="line2d_14">
          <g
             id="g637">
            <use
               xlink:href="#m3874d2070e"
               x="73.080002"
               y="172.75697"
               style="stroke:#000000;stroke-width:0.8"
               id="use635" />
          </g>
        </g>
        <g
           id="text_15">
          <!-- 10000 -->
          <g
             transform="matrix(0.1,0,0,-0.1,34.2675,176.55619)"
             id="g653">
            <defs
               id="defs641">
              <path
                 id="DejaVuSans-31"
                 d="M 794,531 H 1825 V 4091 L 703,3866 v 575 l 1116,225 h 631 V 531 H 3481 V 0 H 794 Z"
                 transform="scale(0.015625)" />
            </defs>
            <use
               xlink:href="#DejaVuSans-31"
               id="use643" />
            <use
               xlink:href="#DejaVuSans-30"
               x="63.623047"
               id="use645" />
            <use
               xlink:href="#DejaVuSans-30"
               x="127.24609"
               id="use647" />
            <use
               xlink:href="#DejaVuSans-30"
               x="190.86914"
               id="use649" />
            <use
               xlink:href="#DejaVuSans-30"
               x="254.49219"
               id="use651" />
          </g>
        </g>
      </g>
      <g
         id="ytick_6">
        <g
           id="line2d_15">
          <g
             id="g659">
            <use
               xlink:href="#m3874d2070e"
               x="73.080002"
               y="138.56963"
               style="stroke:#000000;stroke-width:0.8"
               id="use657" />
          </g>
        </g>
        <g
           id="text_16">
          <!-- 12500 -->
          <g
             transform="matrix(0.1,0,0,-0.1,34.2675,142.36884)"
             id="g672">
            <use
               xlink:href="#DejaVuSans-31"
               id="use662" />
            <use
               xlink:href="#DejaVuSans-32"
               x="63.623047"
               id="use664" />
            <use
               xlink:href="#DejaVuSans-35"
               x="127.24609"
               id="use666" />
            <use
               xlink:href="#DejaVuSans-30"
               x="190.86914"
               id="use668" />
            <use
               xlink:href="#DejaVuSans-30"
               x="254.49219"
               id="use670" />
          </g>
        </g>
      </g>
      <g
         id="ytick_7">
        <g
           id="line2d_16">
          <g
             id="g678">
            <use
               xlink:href="#m3874d2070e"
               x="73.080002"
               y="104.38226"
               style="stroke:#000000;stroke-width:0.8"
               id="use676" />
          </g>
        </g>
        <g
           id="text_17">
          <!-- 15000 -->
          <g
             transform="matrix(0.1,0,0,-0.1,34.2675,108.18148)"
             id="g691">
            <use
               xlink:href="#DejaVuSans-31"
               id="use681" />
            <use
               xlink:href="#DejaVuSans-35"
               x="63.623047"
               id="use683" />
            <use
               xlink:href="#DejaVuSans-30"
               x="127.24609"
               id="use685" />
            <use
               xlink:href="#DejaVuSans-30"
               x="190.86914"
               id="use687" />
            <use
               xlink:href="#DejaVuSans-30"
               x="254.49219"
               id="use689" />
          </g>
        </g>
      </g>
      <g
         id="ytick_8">
        <g
           id="line2d_17">
          <g
             id="g697">
            <use
               xlink:href="#m3874d2070e"
               x="73.080002"
               y="70.194908"
               style="stroke:#000000;stroke-width:0.8"
               id="use695" />
          </g>
        </g>
        <g
           id="text_18">
          <!-- 17500 -->
          <g
             transform="matrix(0.1,0,0,-0.1,34.2675,73.994128)"
             id="g710">
            <use
               xlink:href="#DejaVuSans-31"
               id="use700" />
            <use
               xlink:href="#DejaVuSans-37"
               x="63.623047"
               id="use702" />
            <use
               xlink:href="#DejaVuSans-35"
               x="127.24609"
               id="use704" />
            <use
               xlink:href="#DejaVuSans-30"
               x="190.86914"
               id="use706" />
            <use
               xlink:href="#DejaVuSans-30"
               x="254.49219"
               id="use708" />
          </g>
        </g>
      </g>
      <g
         id="text_19">
        <!-- Occurrence -->
        <g
           transform="matrix(0,-0.1,-0.1,0,28.187812,204.20396)"
           id="g737">
          <defs
             id="defs715">
            <path
               id="DejaVuSans-4f"
               d="m 2522,4238 q -688,0 -1093,-513 -404,-512 -404,-1397 0,-881 404,-1394 405,-512 1093,-512 687,0 1089,512 402,513 402,1394 0,885 -402,1397 -402,513 -1089,513 z m 0,512 q 981,0 1568,-658 588,-658 588,-1764 0,-1103 -588,-1761 -587,-658 -1568,-658 -984,0 -1574,656 -589,657 -589,1763 0,1106 589,1764 590,658 1574,658 z"
               transform="scale(0.015625)" />
          </defs>
          <use
             xlink:href="#DejaVuSans-4f"
             id="use717" />
          <use
             xlink:href="#DejaVuSans-63"
             x="78.710938"
             id="use719" />
          <use
             xlink:href="#DejaVuSans-63"
             x="133.69141"
             id="use721" />
          <use
             xlink:href="#DejaVuSans-75"
             x="188.67188"
             id="use723" />
          <use
             xlink:href="#DejaVuSans-72"
             x="252.05078"
             id="use725" />
          <use
             xlink:href="#DejaVuSans-72"
             x="291.41406"
             id="use727" />
          <use
             xlink:href="#DejaVuSans-65"
             x="330.27734"
             id="use729" />
          <use
             xlink:href="#DejaVuSans-6e"
             x="391.80078"
             id="use731" />
          <use
             xlink:href="#DejaVuSans-63"
             x="455.17969"
             id="use733" />
          <use
             xlink:href="#DejaVuSans-65"
             x="510.16016"
             id="use735" />
        </g>
      </g>
    </g>
    <g
       id="patch_12">
      <path
         d="M 73.08,309.5064 V 41.7312"
         style="fill:none;stroke:#000000;stroke-width:0.8;stroke-linecap:square;stroke-linejoin:miter"
         id="path741" />
    </g>
    <g
       id="patch_13">
      <path
         d="M 526.176,309.5064 V 41.7312"
         style="fill:none;stroke:#000000;stroke-width:0.8;stroke-linecap:square;stroke-linejoin:miter"
         id="path744" />
    </g>
    <g
       id="patch_14">
      <path
         d="M 73.08,309.5064 H 526.176"
         style="fill:none;stroke:#000000;stroke-width:0.8;stroke-linecap:square;stroke-linejoin:miter"
         id="path747" />
    </g>
    <g
       id="patch_15">
      <path
         d="M 73.08,41.7312 H 526.176"
         style="fill:none;stroke:#000000;stroke-width:0.8;stroke-linecap:square;stroke-linejoin:miter"
         id="path750" />
    </g>
    <g
       id="text_20">
      <!-- Label occurrence -->
      <g
         transform="matrix(0.12,0,0,-0.12,248.283,35.7312)"
         id="g785">
        <use
           xlink:href="#DejaVuSans-4c"
           id="use753" />
        <use
           xlink:href="#DejaVuSans-61"
           x="55.712891"
           id="use755" />
        <use
           xlink:href="#DejaVuSans-62"
           x="116.99219"
           id="use757" />
        <use
           xlink:href="#DejaVuSans-65"
           x="180.46875"
           id="use759" />
        <use
           xlink:href="#DejaVuSans-6c"
           x="241.99219"
           id="use761" />
        <use
           xlink:href="#DejaVuSans-20"
           x="269.77539"
           id="use763" />
        <use
           xlink:href="#DejaVuSans-6f"
           x="301.5625"
           id="use765" />
        <use
           xlink:href="#DejaVuSans-63"
           x="362.74414"
           id="use767" />
        <use
           xlink:href="#DejaVuSans-63"
           x="417.72461"
           id="use769" />
        <use
           xlink:href="#DejaVuSans-75"
           x="472.70508"
           id="use771" />
        <use
           xlink:href="#DejaVuSans-72"
           x="536.08398"
           id="use773" />
        <use
           xlink:href="#DejaVuSans-72"
           x="575.44727"
           id="use775" />
        <use
           xlink:href="#DejaVuSans-65"
           x="614.31055"
           id="use777" />
        <use
           xlink:href="#DejaVuSans-6e"
           x="675.83398"
           id="use779" />
        <use
           xlink:href="#DejaVuSans-63"
           x="739.21289"
           id="use781" />
        <use
           xlink:href="#DejaVuSans-65"
           x="794.19336"
           id="use783" />
      </g>
    </g>
  </g>
  <defs
     id="defs793">
    <clipPath
       id="p53498a6da4">
      <rect
         x="73.080002"
         y="41.731201"
         width="453.09601"
         height="267.77521"
         id="rect790" />
    </clipPath>
  </defs>
</svg>
