<?xml version="1.0" encoding="UTF-8" standalone="no"?>
<svg
   width="401.202pt"
   height="308.2464pt"
   viewBox="0 0 401.202 308.24639"
   version="1.1"
   id="svg200061"
   sodipodi:docname="spectrums.svg"
   inkscape:version="1.2.2 (732a01da63, 2022-12-09, custom)"
   xmlns:inkscape="http://www.inkscape.org/namespaces/inkscape"
   xmlns:sodipodi="http://sodipodi.sourceforge.net/DTD/sodipodi-0.dtd"
   xmlns:xlink="http://www.w3.org/1999/xlink"
   xmlns="http://www.w3.org/2000/svg"
   xmlns:svg="http://www.w3.org/2000/svg"
   xmlns:rdf="http://www.w3.org/1999/02/22-rdf-syntax-ns#"
   xmlns:cc="http://creativecommons.org/ns#"
   xmlns:dc="http://purl.org/dc/elements/1.1/">
  <sodipodi:namedview
     id="namedview200063"
     pagecolor="#ffffff"
     bordercolor="#000000"
     borderopacity="0.25"
     inkscape:showpageshadow="2"
     inkscape:pageopacity="0.0"
     inkscape:pagecheckerboard="0"
     inkscape:deskcolor="#d1d1d1"
     inkscape:document-units="pt"
     showgrid="false"
     inkscape:zoom="1.1260506"
     inkscape:cx="134.54103"
     inkscape:cy="230.45146"
     inkscape:window-width="1846"
     inkscape:window-height="1016"
     inkscape:window-x="74"
     inkscape:window-y="27"
     inkscape:window-maximized="1"
     inkscape:current-layer="svg200061" />
  <metadata
     id="metadata199380">
    <rdf:RDF>
      <cc:Work>
        <dc:type
           rdf:resource="http://purl.org/dc/dcmitype/StillImage" />
        <dc:date>2023-05-16T01:20:03.736546</dc:date>
        <dc:format>image/svg+xml</dc:format>
        <dc:creator>
          <cc:Agent>
            <dc:title>Matplotlib v3.7.1, https://matplotlib.org/</dc:title>
          </cc:Agent>
        </dc:creator>
      </cc:Work>
    </rdf:RDF>
  </metadata>
  <defs
     id="defs199384">
    <style
       type="text/css"
       id="style199382">*{stroke-linejoin: round; stroke-linecap: butt}</style>
  </defs>
  <g
     id="patch_2"
     transform="translate(-64.71,-48.0384)">
    <path
       d="M 64.71,356.2848 H 465.912 V 48.0384 H 64.71 Z"
       style="fill:#ffffff"
       id="path199389" />
  </g>
  <g
     id="PolyCollection_1"
     transform="translate(-64.71,-48.0384)">
    <defs
       id="defs199393">
      <path
         id="md438eb6419"
         d="m 82.946455,-93.953572 v -27.551568 l 3.575775,2.62199 3.575775,1.35646 3.575776,-1.31287 3.575775,-1.39228 3.575774,-0.578 3.57578,-0.37285 3.57577,0.17992 3.57578,-0.28135 3.57577,-0.82192 3.57578,-0.76081 3.57577,0.23543 3.57578,-0.16245 3.57577,-0.61982 3.57578,-0.62871 3.57578,-0.2918 3.57577,-0.54956 3.57578,-0.41872 3.57577,-0.33618 3.57578,-0.38975 3.57577,-0.32018 3.57578,-0.41262 3.57577,-0.18859 3.57578,-0.1879 3.57577,-0.66229 3.57578,-1.00434 3.57577,-0.21575 3.57578,0.13041 3.57578,0.0763 3.57577,-0.35942 3.57578,-0.60053 3.57577,-0.26079 3.57578,-0.11559 3.57577,-0.48863 3.57578,-0.50707 3.57577,-0.42713 3.57578,-0.30744 3.57577,-0.26204 3.57578,-0.17211 3.57577,-0.0811 3.57578,0.14141 3.57578,0.24985 3.57577,0.0248 3.57578,-0.16432 3.57577,-0.34237 3.57578,-0.2544 3.57577,0.0782 3.57578,0.20534 3.57577,-0.0275 3.57578,0.34903 3.57578,-0.0884 3.57577,-0.36504 3.57577,-0.15253 3.57578,-0.21856 3.57578,0.13407 3.57577,0.20021 3.57578,-0.0876 3.57577,-0.24428 3.57578,-0.16823 3.57577,0.0662 3.57578,-0.11207 3.57577,-0.21911 3.57578,-0.0769 3.57577,0.10257 3.57578,0.37034 3.57578,0.34628 3.57577,-0.0659 3.57578,-0.0517 3.57577,-0.33987 3.57578,-0.15886 3.57577,-0.0534 3.57578,-0.0208 3.57577,0.23646 3.57578,0.29755 3.57577,0.0239 3.57578,-0.37135 3.57577,-0.2762 3.57578,-0.45417 3.57578,-0.16905 3.57577,-0.14547 3.57578,-0.41667 3.57577,-0.20305 3.57578,0.15979 3.57577,0.81986 3.57578,0.30312 3.57577,0.0674 3.57578,-0.0581 3.57577,0.19278 3.57578,0.16158 3.57578,-0.1149 3.57577,-0.40111 3.57578,0.19406 3.57577,0.4235 3.57578,-0.0422 3.57577,-0.0856 3.57578,0.22105 3.57577,0.0999 3.57578,0.058 3.57577,0.42094 3.57578,0.44501 3.57578,0.46802 3.57577,-0.056 3.57577,-0.23719 v 22.89195 0 l -3.57577,-0.0114 -3.57577,-0.0959 -3.57578,-0.47783 -3.57578,-0.42357 -3.57577,-0.14563 -3.57578,0.53918 -3.57577,0.37559 -3.57578,0.0109 -3.57577,0.116 -3.57578,0.12139 -3.57577,-0.17387 -3.57578,0.0177 -3.57577,0.45579 -3.57578,0.27607 -3.57578,0.0137 -3.57577,-0.19925 -3.57578,-0.38367 -3.57577,-0.82926 -3.57578,-0.15167 -3.57577,1.05544 -3.57578,0.3028 -3.57577,0.22128 -3.57578,0.38953 -3.57577,0.2025 -3.57578,0.18879 -3.57578,0.29157 -3.57577,0.2014 -3.57578,0.47073 -3.57577,0.32894 -3.57578,0.35372 -3.57577,0.35429 -3.57578,0.18908 -3.57577,0.15243 -3.57578,0.25481 -3.57577,0.38533 -3.57578,0.0896 -3.57577,0.10288 -3.57578,0.10802 -3.57578,-0.003 -3.57577,-0.002 -3.57578,0.10812 -3.57577,0.20097 -3.57578,0.12072 -3.57577,-0.0484 -3.57578,0.0696 -3.57577,0.16606 -3.57578,0.0806 -3.57577,-0.0958 -3.57578,-0.0887 -3.57578,0.11773 -3.57577,0.1533 -3.57577,0.31543 -3.57578,0.1622 -3.57578,-0.14388 -3.57577,0.065 -3.57578,-0.0272 -3.57577,0.0683 -3.57578,0.22499 -3.57577,0.23612 -3.57578,0.14884 -3.57577,0.0253 -3.57578,-0.0563 -3.57578,0.0229 -3.57577,0.0812 -3.57578,0.10582 -3.57577,0.16767 -3.57578,0.21872 -3.57577,0.28824 -3.57578,0.3386 -3.57577,0.34086 -3.57578,0.0836 -3.57577,0.14675 -3.57578,0.39889 -3.57577,0.274801 -3.57578,-0.05286 -3.57578,-0.104111 -3.57577,0.0831 -3.57578,0.590351 -3.57577,0.393168 -3.57578,0.11451 -3.57577,0.165133 -3.57578,0.315227 -3.57577,0.263499 -3.57578,0.303073 -3.57577,0.251146 -3.57578,0.302651 -3.57577,0.262283 -3.57578,-0.01171 -3.57578,0.215733 -3.57577,0.205307 -3.57578,-0.07378 -3.57577,-0.224471 -3.57578,0.553339 -3.57577,0.408085 -3.57578,-0.136702 -3.57577,-0.527119 -3.57578,-0.214521 -3.575774,0.0157 -3.575775,1.031816 -3.575776,1.946829 -3.575775,0.667365 z"
         style="stroke:#db5e56;stroke-opacity:0.3" />
    </defs>
    <g
       clip-path="url(#p97a5c6e506)"
       id="g199397">
      <use
         xlink:href="#md438eb6419"
         x="0"
         y="400.32001"
         style="fill:#db5e56;fill-opacity:0.3;stroke:#db5e56;stroke-opacity:0.3"
         id="use199395" />
    </g>
  </g>
  <g
     id="PolyCollection_2"
     transform="translate(-64.71,-48.0384)">
    <defs
       id="defs199401">
      <path
         id="mba74ec38c0"
         d="m 82.946455,-80.916978 v -23.063372 l 3.575775,6.10955 3.575775,4.104366 3.575776,0.378433 3.575775,-0.07915 3.575774,0.785323 3.57578,0.608314 3.57577,0.617876 3.57578,0.270749 3.57577,-0.131969 3.57578,-0.292731 3.57577,0.259298 3.57578,-0.01733 3.57577,-0.328119 3.57578,-0.326314 3.57578,-0.173911 3.57577,-0.597236 3.57578,-0.755761 3.57577,-0.747777 3.57578,-0.882292 3.57577,-1.00344 3.57578,-1.275816 3.57577,-1.290038 3.57578,-1.311565 3.57577,-1.59733 3.57578,-1.77886 3.57577,-1.1447 3.57578,-0.7847 3.57578,-0.73115 3.57577,-0.9961 3.57578,-1.03463 3.57577,-0.68529 3.57578,-0.43626 3.57577,-0.55927 3.57578,-0.42373 3.57577,-0.28393 3.57578,-0.18501 3.57577,-0.23266 3.57578,-0.26775 3.57577,-0.3462 3.57578,-0.32247 3.57578,-0.26106 3.57577,-0.38405 3.57578,-0.50648 3.57577,-0.59901 3.57578,-0.49384 3.57577,-0.25034 3.57578,-0.16303 3.57577,-0.36028 3.57578,-0.1604 3.57578,-0.5606 3.57577,-0.64159 3.57577,-0.27785 3.57578,-0.14249 3.57578,0.19938 3.57577,0.1972 3.57578,-0.10596 3.57577,-0.22368 3.57578,-0.0475 3.57577,0.16246 3.57578,-0.12154 3.57577,-0.43638 3.57578,-0.54529 3.57577,-0.75956 3.57578,-1.32268 3.57578,-2.43257 3.57577,-3.51463 3.57578,-4.01145 3.57577,-4.81157 3.57578,-4.88732 3.57577,-4.99332 3.57578,-5.61808 3.57577,-6.61263 3.57578,-7.8123 3.57577,-8.48298 3.57578,-8.86038 3.57577,-7.78828 3.57578,-6.8271 3.57578,-5.21368 3.57577,-4.18206 3.57578,-3.70513 3.57577,-2.49359 3.57578,-0.11131 3.57577,2.73745 3.57578,-0.63373 3.57577,-2.30871 3.57578,-1.46111 3.57577,-0.29225 3.57578,-0.10293 3.57578,-0.45809 3.57577,-0.95576 3.57578,0.16436 3.57577,0.6152 3.57578,-0.28633 3.57577,-0.34104 3.57578,0.52139 3.57577,0.70546 3.57578,0.78529 3.57577,0.89838 3.57578,0.44494 3.57578,0.49499 3.57577,-0.72092 3.57577,-1.08906 v 55.00677 0 l -3.57577,0.86435 -3.57577,1.13085 -3.57578,-0.011 -3.57578,-0.189 -3.57577,0.2731 -3.57578,0.78623 -3.57577,-0.20963 -3.57578,-0.62977 -3.57577,0.19987 -3.57578,0.42559 -3.57577,-0.061 -3.57578,0.32442 -3.57577,0.94078 -3.57578,0.50115 -3.57578,0.15808 -3.57577,-0.0863 -3.57578,-0.14433 -3.57577,0.53742 -3.57578,2.86064 -3.57577,1.07546 -3.57578,-1.18273 -3.57577,-0.24868 -3.57578,0.71392 -3.57577,0.65 -3.57578,0.8106 -3.57578,1.37105 -3.57577,1.98748 -3.57578,3.18896 -3.57577,3.77501 -3.57578,5.12208 -3.57577,5.6623 -3.57578,6.02128 -3.57577,7.13576 -3.57578,7.91873 -3.57577,7.760371 -3.57578,6.398797 -3.57577,5.00412 -3.57578,3.547205 -3.57578,1.957557 -3.57577,0.84617 -3.57578,0.346091 -3.57577,0.05262 -3.57578,-0.284476 -3.57577,-0.60752 -3.57578,-0.624411 -3.57577,-0.463528 -3.57578,-0.478764 -3.57577,-0.645493 -3.57578,-0.676207 -3.57578,-0.479102 -3.57577,-0.285107 -3.57577,0.07004 -3.57578,0.119963 -3.57578,-0.131695 -3.57577,-0.153042 -3.57578,-0.385504 -3.57577,-0.359898 -3.57578,-0.212174 -3.57577,-0.116564 -3.57578,-0.05487 -3.57577,-0.09514 -3.57578,-0.208124 -3.57578,-0.237542 -3.57577,-0.390495 -3.57578,-0.582805 -3.57577,-0.756161 -3.57578,-0.852707 -3.57577,-0.736137 -3.57578,-0.499953 -3.57577,-0.2087 -3.57578,-0.06501 -3.57577,0.291096 -3.57578,0.735984 -3.57577,0.765404 -3.57578,0.649052 -3.57578,0.802908 -3.57577,1.300612 -3.57578,1.999545 -3.57577,2.096006 -3.57578,2.060404 -3.57577,1.941861 -3.57578,1.614014 -3.57577,1.152193 -3.57578,0.837823 -3.57577,0.600159 -3.57578,0.433158 -3.57577,0.238363 -3.57578,-0.01348 -3.57578,0.05828 -3.57577,-0.08438 -3.57578,-0.338801 -3.57577,-0.425095 -3.57578,-0.0084 -3.57577,-0.141615 -3.57578,-0.4358 -3.57577,-0.566321 -3.57578,0.0101 -3.575774,0.858573 -3.575775,1.323352 -3.575776,-0.02684 -3.575775,-3.179791 z"
         style="stroke:#dbb756;stroke-opacity:0.3" />
    </defs>
    <g
       clip-path="url(#p97a5c6e506)"
       id="g199405">
      <use
         xlink:href="#mba74ec38c0"
         x="0"
         y="400.32001"
         style="fill:#dbb756;fill-opacity:0.3;stroke:#dbb756;stroke-opacity:0.3"
         id="use199403" />
    </g>
  </g>
  <g
     id="PolyCollection_3"
     transform="translate(-64.71,-48.0384)">
    <defs
       id="defs199409">
      <path
         id="m765c5e6637"
         d="m 82.946455,-103.68232 v -26.23298 l 3.575775,2.74739 3.575775,2.44001 3.575776,-0.84648 3.575775,-1.20072 3.575774,-0.009 3.57578,-0.21963 3.57577,0.58672 3.57578,0.47801 3.57577,-0.54857 3.57578,-0.96269 3.57577,0.24111 3.57578,-0.006 3.57577,-0.3289 3.57578,-0.86433 3.57578,-0.65784 3.57577,-0.74373 3.57578,-0.7046 3.57577,-0.81379 3.57578,-0.95153 3.57577,-0.65958 3.57578,-0.88483 3.57577,-1.32978 3.57578,-1.01457 3.57577,-1.18448 3.57578,-1.70143 3.57577,-0.86017 3.57578,-0.42021 3.57578,-0.74007 3.57577,-1.25289 3.57578,-1.25232 3.57577,-0.79407 3.57578,-0.7427 3.57577,-1.24118 3.57578,-1.18581 3.57577,-1.08793 3.57578,-0.81099 3.57577,-0.68721 3.57578,-0.21671 3.57577,0.0161 3.57578,-0.52237 3.57578,-0.45868 3.57577,-0.29558 3.57578,-0.18329 3.57577,-0.14852 3.57578,-0.24861 3.57577,-0.18591 3.57578,0.0948 3.57577,0.0374 3.57578,0.34934 3.57578,-0.53545 3.57577,-0.64055 3.57577,-0.0394 3.57578,0.0731 3.57578,0.27785 3.57577,0.10674 3.57578,-0.38293 3.57577,-0.8975 3.57578,-0.21682 3.57577,0.46908 3.57578,0.0523 3.57577,-0.23016 3.57578,-0.0315 3.57577,0.56985 3.57578,0.47445 3.57578,-0.86418 3.57577,-1.03769 3.57578,-0.28256 3.57577,-0.80868 3.57578,-0.22714 3.57577,0.83297 3.57578,1.50971 3.57577,0.37563 3.57578,-1.00828 3.57577,-0.93401 3.57578,-1.30602 3.57577,-0.42774 3.57578,0.0134 3.57578,0.18091 3.57577,0.25257 3.57578,0.34413 3.57577,1.90633 3.57578,2.95587 3.57577,-1.66289 3.57578,-5.0824 3.57577,0.13418 3.57578,1.52602 3.57577,1.07565 3.57578,0.63581 3.57578,0.0826 3.57577,-0.44838 3.57578,0.0932 3.57577,0.61995 3.57578,0.12707 3.57577,0.48841 3.57578,1.60013 3.57577,0.95651 3.57578,-0.84576 3.57577,-0.23519 3.57578,0.77208 3.57578,0.23867 3.57577,-1.35589 3.57577,-0.70797 v 20.45761 0 l -3.57577,0.19118 -3.57577,0.57325 -3.57578,-0.44106 -3.57578,-0.49648 -3.57577,0.35656 -3.57578,0.84455 -3.57577,-0.43377 -3.57578,-1.09491 -3.57577,-0.40753 -3.57578,-0.0211 -3.57577,-0.38358 -3.57578,-0.10684 -3.57577,0.34783 -3.57578,-0.0987 -3.57578,-0.36665 -3.57577,-0.76778 -3.57578,-1.32795 -3.57577,-0.49155 -3.57578,3.63673 -3.57577,1.94846 -3.57578,-2.0225 -3.57577,-1.34907 -3.57578,-0.19104 -3.57577,-0.19623 -3.57578,-0.18529 -3.57578,-0.009 -3.57577,0.29211 -3.57578,1.00616 -3.57577,0.76274 -3.57578,0.90764 -3.57577,-0.008 -3.57578,-1.05571 -3.57577,-0.62198 -3.57578,0.26715 -3.57577,0.68072 -3.57578,0.1989 -3.57577,0.82624 -3.57578,0.82566 -3.57578,-0.26689 -3.57577,-0.46425 -3.57578,-0.004 -3.57577,0.15636 -3.57578,0.0118 -3.57577,-0.362 -3.57578,0.10995 -3.57577,0.65329 -3.57578,0.31802 -3.57577,-0.0581 -3.57578,-0.2677 -3.57578,-0.1179 -3.57577,-0.0374 -3.57577,0.5542 -3.57578,0.43764 -3.57578,-0.28639 -3.57577,-0.0278 -3.57578,-0.0897 -3.57577,0.10662 -3.57578,0.23728 -3.57577,0.1674 -3.57578,0.1499 -3.57577,0.25671 -3.57578,0.40564 -3.57578,0.42474 -3.57577,-0.014 -3.57578,0.14962 -3.57577,0.54214 -3.57578,0.64558 -3.57577,0.87261 -3.57578,0.91335 -3.57577,0.9566 -3.57578,0.5553 -3.57577,0.61426 -3.57578,0.99542 -3.57577,1.0087 -3.57578,0.68697 -3.57578,0.33689 -3.57577,0.68113 -3.57578,1.39468 -3.57577,0.96289 -3.57578,0.90192 -3.57577,1.21554 -3.57578,0.81067 -3.57577,0.54164 -3.57578,0.89715 -3.57577,0.91248 -3.57578,0.69072 -3.57577,0.58133 -3.57578,0.46003 -3.57578,0.74812 -3.57577,0.27107 -3.57578,-0.16259 -3.57577,-0.31519 -3.57578,0.78583 -3.57577,0.51593 -3.57578,-0.25277 -3.57577,-0.44344 -3.57578,0.16947 -3.575774,-0.074 -3.575775,1.3568 -3.575776,1.68086 -3.575775,0.76164 z"
         style="stroke:#a7db56;stroke-opacity:0.3" />
    </defs>
    <g
       clip-path="url(#p97a5c6e506)"
       id="g199413">
      <use
         xlink:href="#m765c5e6637"
         x="0"
         y="400.32001"
         style="fill:#a7db56;fill-opacity:0.3;stroke:#a7db56;stroke-opacity:0.3"
         id="use199411" />
    </g>
  </g>
  <g
     id="PolyCollection_4"
     transform="translate(-64.71,-48.0384)">
    <defs
       id="defs199417">
      <path
         id="mbef9aa792c"
         d="m 82.946455,-77.114629 v -23.996501 l 3.575775,6.766685 3.575775,4.548342 3.575776,1.171282 3.575775,0.667973 3.575774,1.019376 3.57578,0.82302 3.57577,1.021109 3.57578,0.70057 3.57577,0.172449 3.57578,-0.01844 3.57577,0.601229 3.57578,0.334291 3.57577,0.03027 3.57578,0.06733 3.57578,0.124542 3.57577,-0.249004 3.57578,-0.354603 3.57577,-0.413121 3.57578,-0.626058 3.57577,-0.896717 3.57578,-1.369106 3.57577,-1.589452 3.57578,-1.83593 3.57577,-2.187172 3.57578,-2.271525 3.57577,-1.504357 3.57578,-0.978166 3.57578,-0.744704 3.57577,-0.827039 3.57578,-0.818641 3.57577,-0.263343 3.57578,0.326853 3.57577,0.529266 3.57578,0.801142 3.57577,1.06275 3.57578,1.185122 3.57577,1.017287 3.57578,0.75667 3.57577,0.527489 3.57578,0.477395 3.57578,0.379718 3.57577,0.23245 3.57578,0.172013 3.57577,0.189608 3.57578,0.278769 3.57577,0.472665 3.57578,0.510373 3.57577,0.197976 3.57578,0.281175 3.57578,0.0361 3.57577,-0.0091 3.57577,0.251267 3.57578,0.411244 3.57578,0.587376 3.57577,0.5081 3.57578,0.343453 3.57577,0.395502 3.57578,0.438801 3.57577,0.425883 3.57578,0.127815 3.57577,-0.149114 3.57578,-0.27976 3.57577,-0.62171 3.57578,-1.375627 3.57578,-2.468385 3.57577,-4.075675 3.57578,-6.215871 3.57577,-8.51591 3.57578,-9.98466 3.57577,-10.64458 3.57578,-11.31407 3.57577,-13.01933 3.57578,-14.98897 3.57577,-15.65604 3.57578,-16.47229 3.57577,-15.25358 3.57578,-13.74048 3.57578,-11.40264 3.57577,-9.2788 3.57578,-7.73296 3.57577,-4.79007 3.57578,-0.0449 3.57577,3.99011 3.57578,-3.23906 3.57577,-4.83733 3.57578,-2.41331 3.57577,-0.112 3.57578,0.24878 3.57578,-0.095 3.57577,-0.56175 3.57578,0.77292 3.57577,1.30936 3.57578,0.18756 3.57577,0.24221 3.57578,1.72245 3.57577,2.54464 3.57578,2.13442 3.57577,1.33111 3.57578,0.42517 3.57578,0.41096 3.57577,-1.32482 3.57577,-1.98087 v 61.95143 0 l -3.57577,1.45747 -3.57577,0.96658 -3.57578,-0.44382 -3.57578,-0.36669 -3.57577,-0.64797 -3.57578,-0.89595 -3.57577,-1.57125 -3.57578,-1.29947 -3.57577,-0.12379 -3.57578,0.0145 -3.57577,-0.75454 -3.57578,-0.36163 -3.57577,0.61333 -3.57578,0.16896 -3.57578,-0.11718 -3.57577,0.0186 -3.57578,1.2892 -3.57577,2.89986 -3.57578,2.93637 -3.57577,-0.89206 -3.57578,-0.13947 -3.57577,3.09304 -3.57578,5.58826 -3.57577,6.94631 -3.57578,8.5806 -3.57578,10.34552 -3.57577,11.70193 -3.57578,12.85592 -3.57577,12.59585 -3.57578,12.31957 -3.57577,10.82577 -3.57578,9.325171 -3.57577,8.696921 -3.57578,8.154372 -3.57577,7.112161 -3.57578,5.244958 -3.57577,3.506305 -3.57578,2.557608 -3.57578,1.477728 -3.57577,0.547221 -3.57578,0.140625 -3.57577,-0.107219 -3.57578,-0.31683 -3.57577,-0.527606 -3.57578,-0.614692 -3.57577,-0.525932 -3.57578,-0.499491 -3.57577,-0.56977 -3.57578,-0.582572 -3.57578,-0.508277 -3.57577,-0.399626 -3.57577,-0.220887 -3.57578,-0.08423 -3.57578,-0.204096 -3.57577,-0.331385 -3.57578,-0.453047 -3.57577,-0.515818 -3.57578,-0.441898 -3.57577,-0.364036 -3.57578,-0.32489 -3.57577,-0.338277 -3.57578,-0.399549 -3.57578,-0.438813 -3.57577,-0.618392 -3.57578,-0.841679 -3.57577,-1.065157 -3.57578,-1.218328 -3.57577,-1.202741 -3.57578,-0.989163 -3.57577,-0.688675 -3.57578,-0.42759 -3.57577,-0.05209 -3.57578,0.35756 -3.57577,0.49334 -3.57578,0.45173 -3.57578,0.663593 -3.57577,1.068094 -3.57578,1.59606 -3.57577,1.70999 -3.57578,1.573856 -3.57577,1.412513 -3.57578,1.095113 -3.57577,0.653585 -3.57578,0.379813 -3.57577,0.183627 -3.57578,0.08398 -3.57577,-0.145538 -3.57578,-0.401908 -3.57578,-0.39223 -3.57577,-0.473871 -3.57578,-0.641511 -3.57577,-0.807891 -3.57578,-0.524716 -3.57577,-0.529742 -3.57578,-0.787446 -3.57577,-0.885534 -3.57578,-0.635854 -3.575774,-0.469599 -3.575775,0.04703 -3.575776,-0.665313 -3.575775,-3.269557 z"
         style="stroke:#56db5e;stroke-opacity:0.3" />
    </defs>
    <g
       clip-path="url(#p97a5c6e506)"
       id="g199421">
      <use
         xlink:href="#mbef9aa792c"
         x="0"
         y="400.32001"
         style="fill:#56db5e;fill-opacity:0.3;stroke:#56db5e;stroke-opacity:0.3"
         id="use199419" />
    </g>
  </g>
  <g
     id="PolyCollection_5"
     transform="translate(-64.71,-48.0384)">
    <defs
       id="defs199425">
      <path
         id="mc67cd63d0a"
         d="m 82.946455,-167.13965 v -55.96239 l 3.575775,-6.19142 3.575775,-7.79985 3.575776,-14.85209 3.575775,-14.61782 3.575774,-10.68799 3.57578,-9.06212 3.57577,-6.60333 3.57578,-6.76678 3.57577,-8.16998 3.57578,-7.96524 3.57577,-4.29949 3.57578,-5.46341 3.57577,-4.78475 3.57578,-2.96442 3.57578,-1.70894 3.57577,-2.11491 3.57578,-1.11582 3.57577,0.55286 3.57578,0.75686 3.57577,1.00806 3.57578,1.15333 3.57577,1.97398 3.57578,1.88008 3.57577,0.41064 3.57578,-0.0664 3.57577,2.78356 3.57578,4.29877 3.57578,4.63349 3.57577,3.33722 3.57578,3.14504 3.57577,4.82693 3.57578,5.36041 3.57577,4.47295 3.57578,5.03144 3.57577,5.60197 3.57578,6.00802 3.57577,6.7674 3.57578,7.38382 3.57577,8.04227 3.57578,9.12328 3.57578,9.30124 3.57577,8.21714 3.57578,6.93022 3.57577,5.76626 3.57578,4.77152 3.57577,4.43604 3.57578,3.90664 3.57577,2.82722 3.57578,3.01278 3.57578,2.04429 3.57577,1.26834 3.57577,1.48381 3.57578,1.45736 3.57578,1.93836 3.57577,1.66248 3.57578,0.60739 3.57577,-0.29757 3.57578,-0.71566 3.57577,-0.87874 3.57578,-1.62306 3.57577,-2.04127 3.57578,-1.83298 3.57577,-1.4575 3.57578,-0.75722 3.57578,-0.90251 3.57577,-1.92553 3.57578,-1.50101 3.57577,-1.24557 3.57578,-0.33595 3.57577,0.63006 3.57578,1.60189 3.57577,2.80899 3.57578,2.56343 3.57577,1.40022 3.57578,-0.027 3.57577,-0.78656 3.57578,-1.56929 3.57578,-1.65357 3.57577,-1.99574 3.57578,-2.48413 3.57577,-1.50345 3.57578,0.73887 3.57577,2.34834 3.57578,-1.54947 3.57577,-1.97309 3.57578,-0.537 3.57577,0.73893 3.57578,0.53555 3.57578,-0.22883 3.57577,-1.02617 3.57578,-0.61197 3.57577,-0.6484 3.57578,-1.95748 3.57577,-2.16883 3.57578,-1.12529 3.57577,-0.81982 3.57578,-1.44645 3.57577,-1.73356 3.57578,-1.89047 3.57578,-1.26892 3.57577,-2.46935 3.57577,-2.93584 v 66.35719 0 l -3.57577,1.53041 -3.57577,1.10829 -3.57578,0.56009 -3.57578,0.98606 -3.57577,1.05917 -3.57578,1.36017 -3.57577,1.08649 -3.57578,0.97698 -3.57577,1.44709 -3.57578,1.34139 -3.57577,0.56519 -3.57578,0.59261 -3.57577,0.93141 -3.57578,0.28993 -3.57578,-0.32365 -3.57577,-0.44203 -3.57578,-0.0113 -3.57577,0.17054 -3.57578,0.33408 -3.57577,-0.24335 -3.57578,0.43656 -3.57577,1.23706 -3.57578,1.73174 -3.57577,1.42741 -3.57578,1.18539 -3.57578,1.05429 -3.57577,0.51492 -3.57578,0.14846 -3.57577,-0.74132 -3.57578,-1.3865 -3.57577,-1.32287 -3.57578,-0.67477 -3.57577,-0.14999 -3.57578,0.40589 -3.57577,0.89865 -3.57578,0.87839 -3.57577,1.07246 -3.57578,0.7517 -3.57578,0.71766 -3.57577,0.96278 -3.57578,1.12595 -3.57577,1.25253 -3.57578,1.00116 -3.57577,0.51903 -3.57578,0.39424 -3.57577,0.10372 -3.57578,-0.42577 -3.57577,-1.01925 -3.57578,-1.19946 -3.57578,-0.90738 -3.57577,-0.91554 -3.57577,-0.80362 -3.57578,-1.24749 -3.57578,-1.76879 -3.57577,-1.65122 -3.57578,-2.35715 -3.57577,-2.75598 -3.57578,-2.91085 -3.57577,-3.49547 -3.57578,-4.21582 -3.57577,-5.03321 -3.57578,-5.78777 -3.57578,-5.76724 -3.57577,-4.95863 -3.57578,-4.51316 -3.57577,-4.20844 -3.57578,-3.75194 -3.57577,-3.53281 -3.57578,-3.19577 -3.57577,-2.85418 -3.57578,-3.38082 -3.57577,-3.01566 -3.57578,-1.98021 -3.57577,-2.11632 -3.57578,-2.88647 -3.57578,-2.70598 -3.57577,-1.69798 -3.57578,0.0284 -3.57577,-0.24848 -3.57578,-1.22008 -3.57577,-1.29325 -3.57578,-0.8175 -3.57577,-0.69486 -3.57578,-0.53735 -3.57577,-0.46217 -3.57578,0.44118 -3.57577,0.69858 -3.57578,0.30494 -3.57578,1.42107 -3.57577,2.67749 -3.57578,2.6561 -3.57577,1.86726 -3.57578,4.56976 -3.57577,4.95146 -3.57578,3.86727 -3.57577,3.43674 -3.57578,4.4481 -3.575774,5.88698 -3.575775,8.71776 -3.575776,7.91958 -3.575775,2.54457 z"
         style="stroke:#56dbb7;stroke-opacity:0.3" />
    </defs>
    <g
       clip-path="url(#p97a5c6e506)"
       id="g199429">
      <use
         xlink:href="#mc67cd63d0a"
         x="0"
         y="400.32001"
         style="fill:#56dbb7;fill-opacity:0.3;stroke:#56dbb7;stroke-opacity:0.3"
         id="use199427" />
    </g>
  </g>
  <g
     id="PolyCollection_6"
     transform="translate(-64.71,-48.0384)">
    <defs
       id="defs199433">
      <path
         id="mfc410a0590"
         d="m 82.946455,-81.529306 v -30.090174 l 3.575775,3.42448 3.575775,2.16967 3.575776,-1.25084 3.575775,-1.61489 3.575774,-0.72302 3.57578,-0.7184 3.57577,-0.50929 3.57578,-0.58289 3.57577,-0.73663 3.57578,-1.01549 3.57577,-0.51788 3.57578,-0.61698 3.57577,-0.70705 3.57578,-0.71001 3.57578,-0.72218 3.57577,-1.23355 3.57578,-1.18296 3.57577,-1.18111 3.57578,-1.27306 3.57577,-1.35694 3.57578,-1.47476 3.57577,-1.28599 3.57578,-1.42396 3.57577,-1.88799 3.57578,-2.2255 3.57577,-1.30141 3.57578,-0.89127 3.57578,-0.88568 3.57577,-1.29926 3.57578,-1.65467 3.57577,-1.1188 3.57578,-0.78874 3.57577,-1.03993 3.57578,-1.07318 3.57577,-0.88965 3.57578,-0.63865 3.57577,-0.57753 3.57578,-0.66799 3.57577,-0.61124 3.57578,-0.18637 3.57578,-0.0149 3.57577,-0.38867 3.57578,-0.55255 3.57577,-0.68712 3.57578,-0.59256 3.57577,-0.19384 3.57578,0.034 3.57577,-0.26583 3.57578,0.20566 3.57578,-0.34897 3.57577,-0.71481 3.57577,-0.34829 3.57578,-0.38539 3.57578,0.0418 3.57577,0.18249 3.57578,-0.0674 3.57577,-0.27057 3.57578,-0.19569 3.57577,-0.003 3.57578,-0.23563 3.57577,-0.52319 3.57578,-0.48242 3.57577,-0.3911 3.57578,-0.27672 3.57578,-0.51417 3.57577,-1.62806 3.57578,-2.1448 3.57577,-2.75924 3.57578,-2.74568 3.57577,-2.70925 3.57578,-2.62498 3.57577,-2.14454 3.57578,-2.06478 3.57577,-2.44072 3.57578,-3.01257 3.57577,-2.74848 3.57578,-2.69778 3.57578,-1.8565 3.57577,-1.438 3.57578,-1.65836 3.57577,-1.18345 3.57578,0.60348 3.57577,3.27294 3.57578,0.18444 3.57577,-1.96977 3.57578,-1.17418 3.57577,-0.0914 3.57578,-6.9e-4 3.57578,-0.19172 3.57577,-0.55008 3.57578,0.32215 3.57577,0.72216 3.57578,-0.0838 3.57577,-0.2388 3.57578,0.5081 3.57577,0.73057 3.57578,0.85839 3.57577,0.87637 3.57578,0.3475 3.57578,0.41388 3.57577,-0.5061 3.57577,-0.84339 v 29.56349 0 l -3.57577,0.67823 -3.57577,0.47834 -3.57578,-0.22555 -3.57578,-0.19763 -3.57577,-0.47711 -3.57578,-0.30063 -3.57577,-0.0416 -3.57578,0.0636 -3.57577,0.47036 -3.57578,0.39642 -3.57577,-0.16876 -3.57578,0.15724 -3.57577,0.79288 -3.57578,0.43934 -3.57578,0.30027 -3.57577,0.42555 -3.57578,1.11779 -3.57577,1.17476 -3.57578,-0.54299 -3.57577,-1.62187 -3.57578,0.37747 -3.57577,1.35785 -3.57578,1.61214 -3.57577,1.54928 -3.57578,1.91557 -3.57578,2.70958 -3.57577,3.03674 -3.57578,3.66293 -3.57577,3.82865 -3.57578,4.26165 -3.57577,4.73133 -3.57578,5.0277 -3.57577,5.14918 -3.57578,5.1777 -3.57577,5.06411 -3.57578,4.201672 -3.57577,3.205907 -3.57578,2.252663 -3.57578,1.429176 -3.57577,0.783657 -3.57578,0.420815 -3.57577,0.277764 -3.57578,0.05669 -3.57577,-0.205237 -3.57578,-0.244187 -3.57577,-0.165582 -3.57578,-0.122283 -3.57577,-0.264028 -3.57578,-0.176992 -3.57578,0.03866 -3.57577,0.106802 -3.57577,0.3723 -3.57578,0.320342 -3.57578,0.09824 -3.57577,0.18066 -3.57578,-0.01103 -3.57577,0.04139 -3.57578,0.227864 -3.57577,0.325791 -3.57578,0.304343 -3.57577,0.192612 -3.57578,0.05054 -3.57578,0.113282 -3.57577,0.176749 -3.57578,0.01025 -3.57577,-0.105231 -3.57578,-0.151309 -3.57577,-0.108423 -3.57578,0.04303 -3.57577,0.231539 -3.57578,0.303264 -3.57577,0.492338 -3.57578,0.814252 -3.57577,0.752952 -3.57578,0.612856 -3.57578,0.729706 -3.57577,1.069502 -3.57578,1.526258 -3.57577,1.517624 -3.57578,1.220207 -3.57577,1.093888 -3.57578,1.147441 -3.57577,0.933261 -3.57578,0.766861 -3.57577,0.591504 -3.57578,0.437227 -3.57577,0.278086 -3.57578,-0.0021 -3.57578,0.09819 -3.57577,0.163888 -3.57578,-0.04555 -3.57577,-0.347062 -3.57578,-0.01226 -3.57577,0.01869 -3.57578,-0.190072 -3.57577,-0.545996 -3.57578,-0.591436 -3.575774,-0.237243 -3.575775,1.052795 -3.575776,0.443896 -3.575775,-2.906197 z"
         style="stroke:#56a7db;stroke-opacity:0.3" />
    </defs>
    <g
       clip-path="url(#p97a5c6e506)"
       id="g199437">
      <use
         xlink:href="#mfc410a0590"
         x="0"
         y="400.32001"
         style="fill:#56a7db;fill-opacity:0.3;stroke:#56a7db;stroke-opacity:0.3"
         id="use199435" />
    </g>
  </g>
  <g
     id="PolyCollection_7"
     transform="translate(-64.71,-48.0384)">
    <defs
       id="defs199441">
      <path
         id="m5ef514b5be"
         d="m 82.946455,-96.433916 v -24.322424 l 3.575775,2.26575 3.575775,1.303 3.575776,-1.43472 3.575775,-1.52661 3.575774,-0.41922 3.57578,-0.70011 3.57577,-0.53018 3.57578,-0.48891 3.57577,-0.90471 3.57578,-0.90071 3.57577,-0.29979 3.57578,-0.83287 3.57577,-0.84293 3.57578,-0.60179 3.57578,-0.25706 3.57577,-0.61853 3.57578,-0.47452 3.57577,-0.0548 3.57578,-0.11887 3.57577,-0.13175 3.57578,-0.17714 3.57577,-0.0812 3.57578,-0.0288 3.57577,-0.44644 3.57578,-0.69989 3.57577,0.0379 3.57578,0.36345 3.57578,0.26476 3.57577,-0.26049 3.57578,-0.34483 3.57577,0.005 3.57578,0.0135 3.57577,-0.41334 3.57578,-0.30094 3.57577,-0.22917 3.57578,-0.26205 3.57577,-0.15014 3.57578,0.0507 3.57577,0.0542 3.57578,0.12444 3.57578,0.22696 3.57577,0.0629 3.57578,-0.16152 3.57577,-0.25835 3.57578,-0.27793 3.57577,-0.0279 3.57578,0.13624 3.57577,-0.0513 3.57578,0.29998 3.57578,-0.0799 3.57577,-0.39415 3.57577,-0.15532 3.57578,-0.18407 3.57578,0.11542 3.57577,0.1799 3.57578,-0.12003 3.57577,-0.31026 3.57578,-0.1756 3.57577,0.0408 3.57578,-0.14749 3.57577,-0.22443 3.57578,-0.0104 3.57577,0.17667 3.57578,0.32356 3.57578,0.18811 3.57577,-0.0698 3.57578,0.0278 3.57577,-0.20741 3.57578,-0.0653 3.57577,0.12726 3.57578,0.24217 3.57577,0.33638 3.57578,0.23043 3.57577,0.0219 3.57578,-0.30672 3.57577,-0.091 3.57578,-0.12246 3.57578,-2.8e-4 3.57577,-0.0332 3.57578,-0.35497 3.57577,-0.006 3.57578,0.58658 3.57577,0.30912 3.57578,-0.42875 3.57577,0.06 3.57578,0.15239 3.57577,0.33721 3.57578,0.18081 3.57578,-0.0695 3.57577,-0.20117 3.57578,0.33416 3.57577,0.4081 3.57578,-0.07 3.57577,0.0488 3.57578,0.39598 3.57577,0.2392 3.57578,-0.0698 3.57577,0.29478 3.57578,0.36506 3.57578,0.40383 3.57577,-0.001 3.57577,-0.17188 v 8.61963 0 l -3.57577,0.30682 -3.57577,-0.2371 -3.57578,-0.61589 -3.57578,-0.36484 -3.57577,-0.37267 -3.57578,-0.11326 -3.57577,-0.078 -3.57578,-0.26122 -3.57577,-0.0145 -3.57578,0.0544 -3.57577,-0.2861 -3.57578,-0.15952 -3.57577,0.17371 -3.57578,0.10836 -3.57578,-0.0973 -3.57577,-0.2386 -3.57578,-0.13792 -3.57577,-0.23077 -3.57578,-0.0599 -3.57577,-0.0281 -3.57578,-0.13106 -3.57577,0.10003 -3.57578,0.36872 -3.57577,0.13798 -3.57578,0.0495 -3.57578,0.20237 -3.57577,0.12263 -3.57578,0.23551 -3.57577,-0.0228 -3.57578,-0.16152 -3.57577,-0.14583 -3.57578,-0.005 -3.57577,-0.0131 -3.57578,0.0582 -3.57577,0.16131 -3.57578,-0.0147 -3.57577,-0.0409 -3.57578,-0.16286 -3.57578,-0.16471 -3.57577,-0.0288 -3.57578,0.1014 -3.57577,0.26055 -3.57578,0.15487 -3.57577,-0.0264 -3.57578,0.0988 -3.57577,0.20758 -3.57578,0.1385 -3.57577,-0.11334 -3.57578,-0.0854 -3.57578,0.20419 -3.57577,0.22118 -3.57577,0.35392 -3.57578,0.0922 -3.57578,-0.2153 -3.57577,0.0383 -3.57578,-0.0766 -3.57577,0.0956 -3.57578,0.33057 -3.57577,0.26463 -3.57578,0.16994 -3.57577,0.041 -3.57578,-0.0949 -3.57578,-0.037 -3.57577,0.0971 -3.57578,0.10497 -3.57577,0.11702 -3.57578,0.23996 -3.57577,0.24463 -3.57578,0.30985 -3.57577,0.40088 -3.57578,0.0987 -3.57577,0.099 -3.57578,0.40474 -3.57577,0.27175 -3.57578,-0.13548 -3.57578,-0.19152 -3.57577,0.0329 -3.57578,0.56861 -3.57577,0.51033 -3.57578,0.23065 -3.57577,0.2072 -3.57578,0.2849 -3.57577,0.22835 -3.57578,0.251 -3.57577,0.1033 -3.57578,0.39752 -3.57577,0.55494 -3.57578,0.38645 -3.57578,0.71003 -3.57577,1.00348 -3.57578,0.88611 -3.57577,0.14628 -3.57578,0.81861 -3.57577,1.00635 -3.57578,0.82214 -3.57577,0.77138 -3.57578,0.76083 -3.575774,1.03439 -3.575775,2.2037 -3.575776,3.03093 -3.575775,2.730942 z"
         style="stroke:#5e56db;stroke-opacity:0.3" />
    </defs>
    <g
       clip-path="url(#p97a5c6e506)"
       id="g199445">
      <use
         xlink:href="#m5ef514b5be"
         x="0"
         y="400.32001"
         style="fill:#5e56db;fill-opacity:0.3;stroke:#5e56db;stroke-opacity:0.3"
         id="use199443" />
    </g>
  </g>
  <g
     id="PolyCollection_8"
     transform="translate(-64.71,-48.0384)">
    <defs
       id="defs199449">
      <path
         id="mf3f8333917"
         d="m 82.946455,-102.7127 v -25.49992 l 3.575775,2.06932 3.575775,0.77013 3.575776,-1.9395 3.575775,-1.86412 3.575774,-0.43346 3.57578,-0.42191 3.57577,0.0654 3.57578,-0.21344 3.57577,-0.94746 3.57578,-1.25567 3.57577,0.0388 3.57578,-0.44357 3.57577,-0.76594 3.57578,-1.01502 3.57578,-0.75336 3.57577,-0.84529 3.57578,-0.78133 3.57577,-0.80086 3.57578,-0.88474 3.57577,-0.69345 3.57578,-0.87492 3.57577,-0.98097 3.57578,-0.72201 3.57577,-1.03377 3.57578,-1.57774 3.57577,-0.68267 3.57578,-0.21198 3.57578,-0.41582 3.57577,-1.03428 3.57578,-1.05164 3.57577,-0.57246 3.57578,-0.52164 3.57577,-1.04109 3.57578,-0.90429 3.57577,-0.78557 3.57578,-0.66749 3.57577,-0.60312 3.57578,-0.19234 3.57577,0.0839 3.57578,-0.24515 3.57578,-0.23454 3.57577,-0.17338 3.57578,-0.21529 3.57577,-0.28549 3.57578,-0.18953 3.57577,-0.009 3.57578,0.17036 3.57577,8.2e-4 3.57578,0.43879 3.57578,-0.33731 3.57577,-0.52958 3.57577,-0.12016 3.57578,-0.10408 3.57578,0.32928 3.57577,0.20023 3.57578,-0.29099 3.57577,-0.65473 3.57578,-0.20863 3.57577,0.37336 3.57578,0.0502 3.57577,-0.14509 3.57578,0.0726 3.57577,0.44584 3.57578,0.56688 3.57578,-0.42698 3.57577,-0.86074 3.57578,-0.18468 3.57577,-0.63282 3.57578,-0.37022 3.57577,0.4298 3.57578,1.0488 3.57577,0.35132 3.57578,-0.68742 3.57577,-0.80878 3.57578,-1.20991 3.57577,-0.59988 3.57578,-0.31037 3.57578,0.0171 3.57577,0.0944 3.57578,-0.002 3.57577,1.10096 3.57578,2.12847 3.57577,-0.50379 3.57578,-3.43266 3.57577,-0.0498 3.57578,0.94107 3.57577,0.74219 3.57578,0.4634 3.57578,0.10042 3.57577,-0.4208 3.57578,0.20195 3.57577,0.52479 3.57578,0.0653 3.57577,0.33981 3.57578,1.24368 3.57577,0.68317 3.57578,-0.56126 3.57577,-0.0751 3.57578,0.50457 3.57578,0.34078 3.57577,-0.6716 3.57577,-0.46684 v 13.34432 0 l -3.57577,0.35052 -3.57577,0.30461 -3.57578,-0.50456 -3.57578,-0.43162 -3.57577,-0.0404 -3.57578,0.40693 -3.57577,-0.40823 -3.57578,-0.86643 -3.57577,-0.19457 -3.57578,-0.0448 -3.57577,-0.48139 -3.57578,-0.23262 -3.57577,0.35567 -3.57578,-0.007 -3.57578,-0.33813 -3.57577,-0.57705 -3.57578,-0.56217 -3.57577,-0.0449 -3.57578,1.91994 -3.57577,0.44833 -3.57578,-1.52188 -3.57577,-0.72085 -3.57578,0.15411 -3.57577,0.0504 -3.57578,0.11585 -3.57578,0.41483 -3.57577,0.55351 -3.57578,0.96069 -3.57577,0.59705 -3.57578,0.53191 -3.57577,-0.0862 -3.57578,-0.40594 -3.57577,0.0352 -3.57578,0.53057 -3.57577,0.79597 -3.57578,0.47175 -3.57577,0.76819 -3.57578,0.3647 -3.57578,-0.24675 -3.57577,-0.19861 -3.57578,0.0755 -3.57577,0.29031 -3.57578,0.11748 -3.57577,-0.18057 -3.57578,0.21575 -3.57577,0.50118 -3.57578,0.27557 -3.57577,-0.11811 -3.57578,-0.15826 -3.57578,0.2166 -3.57577,0.1917 -3.57577,0.52168 -3.57578,0.33879 -3.57578,-0.22291 -3.57577,0.13048 -3.57578,-0.0583 -3.57577,0.12708 -3.57578,0.34411 -3.57577,0.38564 -3.57578,0.29366 -3.57577,0.23468 -3.57578,0.18015 -3.57578,0.28902 -3.57577,0.19317 -3.57578,0.28661 -3.57577,0.50307 -3.57578,0.61851 -3.57577,0.75507 -3.57578,0.80741 -3.57577,0.90919 -3.57578,0.50621 -3.57577,0.6086 -3.57578,0.98798 -3.57577,0.88902 -3.57578,0.41055 -3.57578,0.30395 -3.57577,0.66458 -3.57578,1.44891 -3.57577,1.15535 -3.57578,0.9224 -3.57577,0.97305 -3.57578,0.90486 -3.57577,0.79002 -3.57578,0.86103 -3.57577,0.77758 -3.57578,0.80236 -3.57577,0.8436 -3.57578,0.67806 -3.57578,0.84818 -3.57577,0.70112 -3.57578,0.50115 -3.57577,0.0971 -3.57578,1.14735 -3.57577,1.03869 -3.57578,0.28958 -3.57577,-0.0933 -3.57578,0.52989 -3.575774,1.04665 -3.575775,2.54073 -3.575776,3.01754 -3.575775,1.41649 z"
         style="stroke:#b756db;stroke-opacity:0.3" />
    </defs>
    <g
       clip-path="url(#p97a5c6e506)"
       id="g199453">
      <use
         xlink:href="#mf3f8333917"
         x="0"
         y="400.32001"
         style="fill:#b756db;fill-opacity:0.3;stroke:#b756db;stroke-opacity:0.3"
         id="use199451" />
    </g>
  </g>
  <g
     id="PolyCollection_9"
     transform="translate(-64.71,-48.0384)">
    <defs
       id="defs199457">
      <path
         id="m07a3711f40"
         d="m 82.946455,-75.801157 v -23.714807 l 3.575775,6.358576 3.575775,5.752071 3.575776,2.864894 3.575775,1.25894 3.575774,1.391163 3.57578,1.485212 3.57577,1.448313 3.57578,1.022539 3.57577,0.619255 3.57578,0.66275 3.57577,1.058367 3.57578,0.530621 3.57577,0.333714 3.57578,0.485266 3.57578,0.672911 3.57577,0.447591 3.57578,0.278045 3.57577,0.31521 3.57578,0.210844 3.57577,0.07095 3.57578,0.0541 3.57577,0.166463 3.57578,0.23805 3.57577,0.124055 3.57578,0.02602 3.57577,0.184783 3.57578,0.28782 3.57578,0.283924 3.57577,0.160727 3.57578,0.14315 3.57577,0.23085 3.57578,0.232626 3.57577,0.162211 3.57578,0.19502 3.57577,0.215661 3.57578,0.230416 3.57577,0.264378 3.57578,0.237918 3.57577,0.187607 3.57578,0.109984 3.57578,0.186859 3.57577,0.185933 3.57578,0.06852 3.57577,-2.05e-4 3.57578,0.02465 3.57577,0.111603 3.57578,0.148613 3.57577,0.03667 3.57578,0.08056 3.57578,0.02405 3.57577,0.0354 3.57577,0.09942 3.57578,0.08997 3.57578,0.09476 3.57577,0.152574 3.57578,0.153358 3.57577,0.14984 3.57578,0.229411 3.57577,0.17722 3.57578,0.0793 3.57577,0.02263 3.57578,-0.03289 3.57577,-0.08162 3.57578,-0.412996 3.57578,-0.45817 3.57577,0.01253 3.57578,-0.08983 3.57577,-0.377379 3.57578,-0.476031 3.57577,-0.535227 3.57578,-0.737454 3.57577,-1.137428 3.57578,-1.078503 3.57577,-0.858307 3.57578,-0.749179 3.57577,-0.503455 3.57578,-0.549632 3.57578,-0.561282 3.57577,-0.548937 3.57578,-0.608502 3.57577,-0.64545 3.57578,-1.286088 3.57577,-1.876065 3.57578,0.511628 3.57577,1.307331 3.57578,0.530283 3.57577,0.09429 3.57578,-0.05417 3.57578,-0.188055 3.57577,-0.412913 3.57578,-0.289446 3.57577,-0.09261 3.57578,-0.232384 3.57577,-0.258963 3.57578,-0.337234 3.57577,-0.812878 3.57578,-0.839081 3.57577,-0.156167 3.57578,0.219909 3.57578,0.377911 3.57577,0.351667 3.57577,0.16435 v 9.94253 0 l -3.57577,-0.150686 -3.57577,-0.127147 -3.57578,-0.383602 -3.57578,-0.441799 -3.57577,-0.04685 -3.57578,0.724193 -3.57577,0.7563 -3.57578,0.320772 -3.57577,0.156079 -3.57578,0.19127 -3.57577,0.05495 -3.57578,0.18586 -3.57577,0.354608 -3.57578,0.217279 -3.57578,0.08058 -3.57577,-0.09882 -3.57578,-0.633162 -3.57577,-1.465836 -3.57578,-0.353097 -3.57577,2.13683 -3.57578,1.093458 -3.57577,0.330694 -3.57578,0.306276 -3.57577,0.307982 -3.57578,0.296736 -3.57578,0.231703 -3.57577,0.169667 -3.57578,0.422472 -3.57577,0.523574 -3.57578,0.806713 -3.57577,0.911564 -3.57578,0.576953 -3.57577,0.413889 -3.57578,0.436145 -3.57577,0.452809 -3.57578,0.176057 -3.57577,-0.05294 -3.57578,0.448902 -3.57578,0.480861 -3.57577,0.161341 -3.57578,0.09595 -3.57577,0.01732 -3.57578,-0.06355 -3.57577,-0.130007 -3.57578,-0.164412 -3.57577,-0.141272 -3.57578,-0.05597 -3.57577,-7.91e-4 -3.57578,-0.02877 -3.57578,-0.03587 -3.57577,-0.0204 -3.57577,0.02759 -3.57578,0.06629 -3.57578,0.03601 -3.57577,0.04858 -3.57578,0.0091 -3.57577,0.09649 -3.57578,0.109948 -3.57577,0.0065 -3.57578,-0.0068 -3.57577,0.01055 -3.57578,0.05302 -3.57578,0.09567 -3.57577,0.0862 -3.57578,-0.01125 -3.57577,-0.08409 -3.57578,-0.09093 -3.57577,-0.04241 -3.57578,-0.05785 -3.57577,-0.02148 -3.57578,-0.02135 -3.57577,-0.0017 -3.57578,0.03844 -3.57577,0.0404 -3.57578,-0.03562 -3.57578,-0.08078 -3.57577,-0.02564 -3.57578,0.114419 -3.57577,0.03366 -3.57578,0.02933 -3.57577,0.131427 -3.57578,0.138093 -3.57577,0.03921 -3.57578,0.06759 -3.57577,-0.0701 -3.57578,-0.219587 -3.57577,-0.340556 -3.57578,-0.444883 -3.57578,-0.275649 -3.57577,-0.244403 -3.57578,-0.559246 -3.57577,-0.90123 -3.57578,-0.652659 -3.57577,-0.661516 -3.57578,-0.919437 -3.57577,-0.67486 -3.57578,-0.177265 -3.575774,-0.531697 -3.575775,-0.467808 -3.575776,-1.283945 -3.575775,-3.461086 z"
         style="stroke:#db56a7;stroke-opacity:0.3" />
    </defs>
    <g
       clip-path="url(#p97a5c6e506)"
       id="g199461">
      <use
         xlink:href="#m07a3711f40"
         x="0"
         y="400.32001"
         style="fill:#db56a7;fill-opacity:0.3;stroke:#db56a7;stroke-opacity:0.3"
         id="use199459" />
    </g>
  </g>
  <g
     id="line2d_14"
     transform="translate(-64.71,-48.0384)">
    <path
       d="m 82.946455,292.59065 3.575775,1.68871 3.575775,0.34455 3.575776,-1.62985 3.575775,-1.21205 3.575774,-0.29685 3.57578,-0.0792 3.57577,0.35352 3.57578,-0.0723 3.57577,-0.61501 3.57578,-0.65707 3.57577,0.22995 3.57578,-0.0443 3.57577,-0.41256 3.57578,-0.42222 3.57578,-0.14005 3.57577,-0.40592 3.57578,-0.36068 3.57577,-0.29367 3.57578,-0.34641 3.57577,-0.29184 3.57578,-0.36393 3.57577,-0.17686 3.57578,-0.1512 3.57577,-0.52773 3.57578,-0.79734 3.57577,-0.14945 3.57578,0.11727 3.57578,0.0646 3.57577,-0.31711 3.57578,-0.49971 3.57577,-0.20378 3.57578,-0.0996 3.57577,-0.41473 3.57578,-0.42284 3.57577,-0.35769 3.57578,-0.26308 3.57577,-0.21485 3.57578,-0.13897 3.57577,-0.0812 3.57578,0.0592 3.57578,0.15308 3.57577,-2.3e-4 3.57578,-0.15658 3.57577,-0.28924 3.57578,-0.23969 3.57577,0.005 3.57578,0.11625 3.57577,-0.0463 3.57578,0.24646 3.57578,-0.12533 3.57577,-0.34023 3.57577,-0.15292 3.57578,-0.16814 3.57578,0.11141 3.57577,0.14798 3.57578,-0.0841 3.57577,-0.20517 3.57578,-0.11891 3.57577,0.0573 3.57578,-0.11639 3.57577,-0.21005 3.57578,-0.0925 3.57577,0.0521 3.57578,0.18666 3.57578,0.11914 3.57577,-0.0844 3.57578,-0.0707 3.57577,-0.3626 3.57578,-0.20683 3.57577,-0.10294 3.57578,-0.10495 3.57577,-0.0589 3.57578,-0.0281 3.57577,-0.1525 3.57578,-0.42104 3.57577,-0.2388 3.57578,-0.37287 3.57578,-0.17892 3.57577,-0.17398 3.57578,-0.40311 3.57577,-0.21216 3.57578,-0.0715 3.57577,-0.1178 3.57578,0.2274 3.57577,0.44831 3.57578,0.16278 3.57577,0.19602 3.57578,0.0739 3.57578,-0.19549 3.57577,-0.42845 3.57578,0.0882 3.57577,0.29868 3.57578,-0.0818 3.57577,-0.10082 3.57578,0.10506 3.57577,-0.13783 3.57578,-0.2406 3.57577,0.28328 3.57578,0.4343 3.57578,0.47292 3.57577,0.02 3.57577,-0.11288"
       clip-path="url(#p97a5c6e506)"
       style="fill:none;stroke:#db5e56;stroke-width:1.5;stroke-linecap:square"
       id="path199687" />
  </g>
  <g
     id="line2d_15"
     transform="translate(-64.71,-48.0384)">
    <path
       d="m 82.946455,307.87134 3.575775,5.22539 3.575775,3.64208 3.575776,0.20263 3.575775,-0.70125 3.575774,-0.0366 3.57578,0.2991 3.57577,0.5921 3.57578,0.35327 3.57577,0.005 3.57578,-0.14214 3.57577,0.3422 3.57578,0.16073 3.57577,-0.12187 3.57578,-0.19229 3.57578,-0.0802 3.57577,-0.4178 3.57578,-0.59446 3.57577,-0.67397 3.57578,-0.86005 3.57577,-1.07782 3.57578,-1.44492 3.57577,-1.61595 3.57578,-1.68598 3.57577,-1.84667 3.57578,-1.8892 3.57577,-1.22266 3.57578,-0.7938 3.57578,-0.6901 3.57577,-0.88075 3.57578,-0.88531 3.57577,-0.48819 3.57578,-0.18562 3.57577,-0.17529 3.57578,0.0381 3.57577,0.2261 3.57578,0.33385 3.57577,0.26175 3.57578,0.15753 3.57577,0.0222 3.57578,-0.0425 3.57578,-0.0265 3.57577,-0.14445 3.57578,-0.22581 3.57577,-0.24122 3.57578,-0.14083 3.57577,0.0548 3.57578,0.11123 3.57577,-0.10362 3.57578,-0.0144 3.57578,-0.34028 3.57577,-0.35581 3.57577,0.004 3.57578,0.16831 3.57578,0.43779 3.57577,0.42135 3.57578,0.1864 3.57577,0.11992 3.57578,0.28845 3.57577,0.385 3.57578,0.0815 3.57577,-0.2445 3.57578,-0.44569 3.57577,-0.80286 3.57578,-1.64012 3.57578,-2.98989 3.57577,-4.25937 3.57578,-5.20513 3.57577,-6.28597 3.57578,-6.40302 3.57577,-6.06454 3.57578,-5.81968 3.57577,-6.13746 3.57578,-6.4672 3.57577,-6.12899 3.57578,-6.02467 3.57577,-4.88788 3.57578,-4.09907 3.57578,-3.01215 3.57577,-2.41602 3.57578,-2.20953 3.57577,-1.12246 3.57578,0.53571 3.57577,0.831 3.57578,-1.74719 3.57577,-1.42306 3.57578,-0.65839 3.57577,-0.10298 3.57578,-0.13051 3.57578,-0.47962 3.57577,-0.94826 3.57578,-0.08 3.57577,0.33809 3.57578,-0.35596 3.57577,-0.27046 3.57578,0.57558 3.57577,0.45755 3.57578,-4.7e-4 3.57577,0.31264 3.57578,0.31697 3.57578,0.253 3.57577,-0.92589 3.57577,-0.97671"
       clip-path="url(#p97a5c6e506)"
       style="fill:none;stroke:#dbb756;stroke-width:1.5;stroke-linecap:square"
       id="path199690" />
  </g>
  <g
     id="line2d_16"
     transform="translate(-64.71,-48.0384)">
    <path
       d="m 82.946455,283.52119 3.575775,0.24204 3.575775,0.83919 3.575776,-1.26367 3.575775,-1.27876 3.575774,0.0324 3.57578,-0.19455 3.57577,0.51508 3.57578,0.36539 3.57577,-0.53225 3.57578,-0.87426 3.57577,0.27815 3.57578,0.0783 3.57577,-0.29998 3.57578,-0.80623 3.57578,-0.55893 3.57577,-0.66253 3.57578,-0.69766 3.57577,-0.86313 3.57578,-0.92435 3.57577,-0.60061 3.57578,-0.84774 3.57577,-1.27266 3.57578,-0.95825 3.57577,-1.07368 3.57578,-1.54806 3.57577,-0.77065 3.57578,-0.37855 3.57578,-0.71352 3.57577,-1.13079 3.57578,-1.12387 3.57577,-0.70417 3.57578,-0.649 3.57577,-1.09889 3.57578,-1.04958 3.57577,-0.98027 3.57578,-0.72828 3.57577,-0.61468 3.57578,-0.18317 3.57577,0.0151 3.57578,-0.47356 3.57578,-0.43216 3.57577,-0.27614 3.57578,-0.16659 3.57577,-0.15797 3.57578,-0.24294 3.57577,-0.14626 3.57578,0.0923 3.57577,0.0326 3.57578,0.31786 3.57578,-0.48654 3.57577,-0.59737 3.57577,-0.001 3.57578,0.0955 3.57578,0.27278 3.57577,0.0824 3.57578,-0.35048 3.57577,-0.77539 3.57578,-0.16339 3.57577,0.41554 3.57578,0.0202 3.57577,-0.19326 3.57578,-0.0139 3.57577,0.51705 3.57578,0.37067 3.57578,-0.84492 3.57577,-0.93197 3.57578,-0.24073 3.57577,-0.74469 3.57578,-0.24715 3.57577,0.72747 3.57578,1.28271 3.57577,0.19173 3.57578,-0.95795 3.57577,-0.84838 3.57578,-1.15609 3.57577,-0.35992 3.57578,0.011 3.57578,0.1831 3.57577,0.2244 3.57578,0.26758 3.57577,1.6277 3.57578,2.48919 3.57577,-1.80568 3.57578,-4.35956 3.57577,0.31286 3.57578,1.42699 3.57577,0.92171 3.57578,0.50124 3.57578,0.0907 3.57577,-0.39811 3.57578,0.10002 3.57577,0.50176 3.57578,0.0741 3.57577,0.44797 3.57578,1.34752 3.57577,0.69513 3.57578,-0.84515 3.57577,-0.29588 3.57578,0.63428 3.57578,0.33987 3.57577,-0.96457 3.57577,-0.44957"
       clip-path="url(#p97a5c6e506)"
       style="fill:none;stroke:#a7db56;stroke-width:1.5;stroke-linecap:square"
       id="path199693" />
  </g>
  <g
     id="line2d_17"
     transform="translate(-64.71,-48.0384)">
    <path
       d="m 82.946455,311.20712 3.575775,5.55067 3.575775,3.90895 3.575776,0.91829 3.575775,0.31048 3.575774,0.74448 3.57578,0.72944 3.57577,0.95332 3.57578,0.74401 3.57577,0.35109 3.57578,0.25314 3.57577,0.70457 3.57578,0.48789 3.57577,0.25207 3.57578,0.22978 3.57578,0.26323 3.57577,-0.0517 3.57578,-0.21929 3.57577,-0.29838 3.57578,-0.50293 3.57577,-0.77515 3.57578,-1.23211 3.57577,-1.50098 3.57578,-1.7049 3.57577,-1.94858 3.57578,-1.93379 3.57577,-1.28623 3.57578,-0.82088 3.57578,-0.59821 3.57577,-0.66019 3.57578,-0.5881 3.57577,-0.10563 3.57578,0.37722 3.57577,0.60897 3.57578,0.89515 3.57577,1.13275 3.57578,1.20172 3.57577,1.04122 3.57578,0.79918 3.57577,0.57294 3.57578,0.4581 3.57578,0.38964 3.57577,0.28536 3.57578,0.24845 3.57577,0.27682 3.57578,0.36034 3.57577,0.49424 3.57578,0.48171 3.57577,0.26468 3.57578,0.24264 3.57578,0.0602 3.57577,0.10589 3.57577,0.32545 3.57578,0.45976 3.57578,0.58497 3.57577,0.53894 3.57578,0.42147 3.57577,0.46072 3.57578,0.52674 3.57577,0.47675 3.57578,0.22232 3.57577,-0.0209 3.57578,-0.21019 3.57577,-0.58446 3.57578,-1.42668 3.57578,-2.513 3.57577,-3.79099 3.57578,-5.73041 3.57577,-7.81404 3.57578,-9.06951 3.57577,-9.67076 3.57578,-10.31962 3.57577,-11.92255 3.57578,-13.65427 3.57577,-14.12593 3.57578,-14.66411 3.57577,-13.47776 3.57578,-12.043 3.57578,-9.99162 3.57577,-8.11256 3.57578,-6.6606 3.57577,-3.94156 3.57578,0.0473 3.57577,2.44109 3.57578,-3.08771 3.57577,-3.8686 3.57578,-1.85126 3.57577,-0.0653 3.57578,0.18298 3.57578,-0.13196 3.57577,-0.58754 3.57578,0.56728 3.57577,1.03195 3.57578,0.0865 3.57577,0.18301 3.57578,1.51095 3.57577,2.05795 3.57578,1.51518 3.57577,0.98954 3.57578,0.39594 3.57578,0.42738 3.57577,-1.14569 3.57577,-1.71917"
       clip-path="url(#p97a5c6e506)"
       style="fill:none;stroke:#56db5e;stroke-width:1.5;stroke-linecap:square"
       id="path199696" />
  </g>
  <g
     id="line2d_18"
     transform="translate(-64.71,-48.0384)">
    <path
       d="m 82.946455,205.19915 3.575775,-4.21982 3.575775,-5.17221 3.575776,-11.38583 3.575775,-11.6678 3.575774,-8.28748 3.57578,-6.75511 3.57577,-5.02004 3.57578,-5.31702 3.57577,-6.56072 3.57578,-6.2675 3.57577,-3.08338 3.57578,-4.05975 3.57577,-3.73112 3.57578,-2.19275 3.57578,-1.00694 3.57577,-1.40674 3.57578,-0.7785 3.57577,0.50752 3.57578,0.6471 3.57577,0.85146 3.57578,0.98542 3.57577,1.63361 3.57578,1.55008 3.57577,0.32956 3.57578,-0.0474 3.57577,2.24077 3.57578,3.50238 3.57578,3.75998 3.57577,2.72677 3.57578,2.56262 3.57577,3.9213 3.57578,4.37061 3.57577,3.66357 3.57578,4.11361 3.57577,4.56739 3.57578,4.87998 3.57577,5.48792 3.57578,5.94849 3.57577,6.50045 3.57578,7.44525 3.57578,7.54451 3.57577,6.62517 3.57578,5.57303 3.57577,4.63086 3.57578,3.84118 3.57577,3.59601 3.57578,3.1319 3.57577,2.23922 3.57578,2.39078 3.57578,1.64589 3.57577,1.03598 3.57577,1.19968 3.57578,1.18237 3.57578,1.56891 3.57577,1.34086 3.57578,0.51659 3.57577,-0.20065 3.57578,-0.55495 3.57577,-0.69889 3.57578,-1.3121 3.57577,-1.6469 3.57578,-1.47947 3.57577,-1.21014 3.57578,-0.73744 3.57578,-0.82711 3.57577,-1.49899 3.57578,-1.1897 3.57577,-1.07211 3.57578,-0.37092 3.57577,0.39003 3.57578,1.13832 3.57577,2.06594 3.57578,1.97496 3.57577,1.07076 3.57578,-0.0877 3.57577,-0.65075 3.57578,-1.31178 3.57578,-1.41949 3.57577,-1.71157 3.57578,-2.10793 3.57577,-1.37026 3.57578,0.15116 3.57577,1.29584 3.57578,-0.94177 3.57577,-1.07182 3.57578,-0.26283 3.57577,0.59048 3.57578,0.42961 3.57578,-0.25939 3.57577,-0.97878 3.57578,-0.60229 3.57577,-0.6068 3.57578,-1.64943 3.57577,-1.80797 3.57578,-1.05113 3.57577,-0.95316 3.57578,-1.40331 3.57577,-1.39636 3.57578,-1.43827 3.57578,-0.9145 3.57577,-1.78882 3.57577,-2.23313"
       clip-path="url(#p97a5c6e506)"
       style="fill:none;stroke:#56dbb7;stroke-width:1.5;stroke-linecap:square"
       id="path199699" />
  </g>
  <g
     id="line2d_19"
     transform="translate(-64.71,-48.0384)">
    <path
       d="m 82.946455,303.74561 3.575775,3.86817 3.575775,2.53793 3.575776,-0.84737 3.575775,-1.33384 3.575774,-0.24289 3.57578,-0.0635 3.57577,0.0183 3.57578,-0.1964 3.57577,-0.37766 3.57578,-0.50162 3.57577,-0.0854 3.57578,-0.28572 3.57577,-0.43546 3.57578,-0.4041 3.57578,-0.36003 3.57577,-0.75582 3.57578,-0.81009 3.57577,-0.8863 3.57578,-1.01996 3.57577,-1.1451 3.57578,-1.31111 3.57577,-1.18993 3.57578,-1.32209 3.57577,-1.7028 3.57578,-1.87588 3.57577,-1.18546 3.57578,-0.81049 3.57578,-0.74927 3.57577,-1.0261 3.57578,-1.23446 3.57577,-0.80557 3.57578,-0.546 3.57577,-0.63574 3.57578,-0.5581 3.57577,-0.39062 3.57578,-0.24367 3.57577,-0.23615 3.57578,-0.33912 3.57577,-0.39399 3.57578,-0.14983 3.57578,-0.0327 3.57577,-0.29064 3.57578,-0.42844 3.57577,-0.50646 3.57578,-0.41021 3.57577,-0.11761 3.57578,0.0225 3.57577,-0.22324 3.57578,0.0537 3.57578,-0.33465 3.57577,-0.54356 3.57577,-0.22755 3.57578,-0.21202 3.57578,0.10938 3.57577,0.22327 3.57578,0.0274 3.57577,-0.0525 3.57578,0.0242 3.57577,0.10131 3.57578,-0.14616 3.57577,-0.40047 3.57578,-0.45162 3.57577,-0.58738 3.57578,-0.85295 3.57578,-1.38342 3.57577,-2.41698 3.57578,-3.17324 3.57577,-3.91167 3.57578,-3.96169 3.57577,-3.92922 3.57578,-3.82633 3.57577,-3.43794 3.57578,-3.16321 3.57577,-3.13469 3.57578,-3.33775 3.57577,-2.89261 3.57578,-2.70368 3.57578,-1.88603 3.57577,-1.49365 3.57578,-1.63524 3.57577,-1.27065 3.57578,0.113 3.57577,2.4474 3.57578,0.36372 3.57577,-1.57227 3.57578,-1.14598 3.57577,-0.25846 3.57578,-0.15049 3.57578,-0.31552 3.57577,-0.67148 3.57578,0.0824 3.57577,0.44546 3.57578,-0.2401 3.57577,-0.35458 3.57578,0.22223 3.57577,0.38606 3.57578,0.57951 3.57577,0.67675 3.57578,0.27257 3.57578,0.31971 3.57577,-0.49223 3.57577,-0.7608"
       clip-path="url(#p97a5c6e506)"
       style="fill:none;stroke:#56a7db;stroke-width:1.5;stroke-linecap:square"
       id="path199702" />
  </g>
  <g
     id="line2d_20"
     transform="translate(-64.71,-48.0384)">
    <path
       d="m 82.946455,291.72487 3.575775,0.13892 3.575775,-0.71396 3.575776,-2.23283 3.575775,-1.86516 3.575774,-0.7268 3.57578,-0.73047 3.57577,-0.65079 3.57578,-0.65552 3.57577,-0.95553 3.57578,-0.85966 3.57577,-0.22304 3.57578,-0.85948 3.57577,-0.92321 3.57578,-0.65591 3.57578,-0.32176 3.57577,-0.58673 3.57578,-0.43602 3.57577,-0.079 3.57578,-0.18493 3.57577,-0.18005 3.57578,-0.23102 3.57577,-0.1442 3.57578,-0.12973 3.57577,-0.47838 3.57578,-0.63425 3.57577,0.002 3.57578,0.27749 3.57578,0.20011 3.57577,-0.26612 3.57578,-0.37478 3.57577,-0.0469 3.57578,-0.0426 3.57577,-0.4071 3.57578,-0.3054 3.57577,-0.2369 3.57578,-0.25101 3.57577,-0.13358 3.57578,-0.0271 3.57577,-0.0215 3.57578,0.0807 3.57578,0.16092 3.57577,0.0109 3.57578,-0.16573 3.57577,-0.26149 3.57578,-0.30425 3.57577,-0.0617 3.57578,0.10642 3.57577,-0.0448 3.57578,0.25764 3.57578,-0.086 3.57577,-0.37403 3.57577,-0.18825 3.57578,-0.19413 3.57578,0.1004 3.57577,0.14662 3.57578,-0.12927 3.57577,-0.25892 3.57578,-0.13721 3.57577,0.0336 3.57578,-0.15118 3.57577,-0.24249 3.57578,-0.0559 3.57577,0.10272 3.57578,0.24413 3.57578,0.17549 3.57577,-0.0144 3.57578,0.0213 3.57577,-0.18436 3.57578,-0.0618 3.57577,0.0702 3.57578,0.12366 3.57577,0.24111 3.57578,0.19598 3.57577,0.0223 3.57578,-0.27111 3.57577,-0.10681 3.57578,-0.16241 3.57578,-0.0249 3.57577,-0.0856 3.57578,-0.36185 3.57577,-0.0529 3.57578,0.35882 3.57577,0.16861 3.57578,-0.18443 3.57577,0.14537 3.57578,0.14516 3.57577,0.2879 3.57578,0.13907 3.57578,-0.089 3.57577,-0.18743 3.57578,0.24684 3.57577,0.3471 3.57578,-0.0622 3.57577,0.0317 3.57578,0.3286 3.57577,0.1586 3.57578,0.0217 3.57577,0.33373 3.57578,0.36495 3.57578,0.50986 3.57577,0.11797 3.57577,-0.23936"
       clip-path="url(#p97a5c6e506)"
       style="fill:none;stroke:#5e56db;stroke-width:1.5;stroke-linecap:square"
       id="path199705" />
  </g>
  <g
     id="line2d_21"
     transform="translate(-64.71,-48.0384)">
    <path
       d="m 82.946455,284.85734 3.575775,0.42445 3.575775,-0.32318 3.575776,-2.47852 3.575775,-2.20242 3.575774,-0.74006 3.57578,-0.4759 3.57577,0.0794 3.57578,-0.25151 3.57577,-0.99308 3.57578,-1.20151 3.57577,-0.0292 3.57578,-0.47236 3.57577,-0.73353 3.57578,-0.9316 3.57578,-0.71571 3.57577,-0.84444 3.57578,-0.79185 3.57577,-0.78921 3.57578,-0.87289 3.57577,-0.74174 3.57578,-0.88989 3.57577,-0.97701 3.57578,-0.82219 3.57577,-1.09457 3.57578,-1.51333 3.57577,-0.67362 3.57578,-0.25796 3.57578,-0.41319 3.57577,-0.96165 3.57578,-1.01981 3.57577,-0.59053 3.57578,-0.51392 3.57577,-0.97515 3.57578,-0.85585 3.57577,-0.77032 3.57578,-0.64299 3.57577,-0.5531 3.57578,-0.23947 3.57577,-0.0546 3.57578,-0.26709 3.57578,-0.20734 3.57577,-0.20404 3.57578,-0.25447 3.57577,-0.33557 3.57578,-0.26681 3.57577,-0.0682 3.57578,0.11432 3.57577,-0.0648 3.57578,0.33084 3.57578,-0.33804 3.57577,-0.52564 3.57577,-0.15592 3.57578,-0.16035 3.57578,0.24378 3.57577,0.15916 3.57578,-0.28328 3.57577,-0.57795 3.57578,-0.21219 3.57577,0.27696 3.57578,-0.0337 3.57577,-0.2177 3.57578,-0.001 3.57577,0.32223 3.57578,0.4068 3.57578,-0.39583 3.57577,-0.81447 3.57578,-0.32821 3.57577,-0.7144 3.57578,-0.45039 3.57577,0.19731 3.57578,0.72737 3.57577,0.21878 3.57578,-0.60967 3.57577,-0.70291 3.57578,-1.0853 3.57577,-0.5767 3.57578,-0.3626 3.57578,-0.0494 3.57577,0.022 3.57578,-0.0782 3.57577,0.91091 3.57578,1.82517 3.57577,-0.47606 3.57578,-2.6763 3.57577,-0.002 3.57578,0.75162 3.57577,0.65963 3.57578,0.40076 3.57578,0.0539 3.57577,-0.38824 3.57578,0.21729 3.57577,0.50309 3.57578,0.055 3.57577,0.26719 3.57578,1.05506 3.57577,0.5457 3.57578,-0.4841 3.57577,-0.0173 3.57578,0.4681 3.57578,0.42267 3.57577,-0.48811 3.57577,-0.40868"
       clip-path="url(#p97a5c6e506)"
       style="fill:none;stroke:#b756db;stroke-width:1.5;stroke-linecap:square"
       id="path199708" />
  </g>
  <g
     id="line2d_22"
     transform="translate(-64.71,-48.0384)">
    <path
       d="m 82.946455,312.66144 3.575775,5.19476 3.575775,4.60658 3.575776,2.07442 3.575775,0.86337 3.575774,0.96143 3.57578,0.83124 3.57577,1.06159 3.57578,0.97098 3.57577,0.64039 3.57578,0.65771 3.57577,0.97979 3.57578,0.54494 3.57577,0.28905 3.57578,0.38046 3.57578,0.5589 3.57577,0.39407 3.57578,0.24882 3.57577,0.19265 3.57578,0.0716 3.57577,0.0159 3.57578,-0.042 3.57577,0.0175 3.57578,0.10436 3.57577,0.0452 3.57578,-0.0442 3.57577,0.10522 3.57578,0.1843 3.57578,0.15977 3.57577,0.0602 3.57578,0.0524 3.57577,0.11627 3.57578,0.12699 3.57577,0.0918 3.57578,0.12644 3.57577,0.12904 3.57578,0.16067 3.57577,0.17424 3.57578,0.12458 3.57577,0.0507 3.57578,0.007 3.57578,0.0669 3.57577,0.0877 3.57578,0.0376 3.57577,-0.003 3.57578,-0.0426 3.57577,0.008 3.57578,0.0698 3.57577,-0.006 3.57578,0.0223 3.57578,-0.0211 3.57577,0.004 3.57577,0.0599 3.57578,0.0629 3.57578,0.0618 3.57577,0.0767 3.57578,0.10466 3.57577,0.14556 3.57578,0.19691 3.57577,0.15361 3.57578,0.0714 3.57577,0.003 3.57578,-0.0644 3.57577,-0.12148 3.57578,-0.44693 3.57578,-0.45353 3.57577,0.0327 3.57578,-0.13295 3.57577,-0.41509 3.57578,-0.45609 3.57577,-0.47456 3.57578,-0.6572 3.57577,-1.0245 3.57578,-0.94261 3.57577,-0.69094 3.57578,-0.58582 3.57577,-0.33656 3.57578,-0.39067 3.57578,-0.42901 3.57577,-0.42846 3.57578,-0.45739 3.57577,-0.48807 3.57578,-1.18977 3.57577,-2.00645 3.57578,0.43236 3.57577,1.38659 3.57578,0.58172 3.57577,0.0965 3.57578,-0.0674 3.57578,-0.20267 3.57577,-0.38376 3.57578,-0.23765 3.57577,-0.0738 3.57578,-0.21183 3.57577,-0.20752 3.57578,-0.329 3.57577,-0.78459 3.57578,-0.78164 3.57577,-0.0547 3.57578,0.33086 3.57578,0.38075 3.57577,0.23941 3.57577,0.15752"
       clip-path="url(#p97a5c6e506)"
       style="fill:none;stroke:#db56a7;stroke-width:1.5;stroke-linecap:square"
       id="path199711" />
  </g>
  <defs
     id="defs200059">
    <clipPath
       id="p97a5c6e506">
      <rect
         x="64.709999"
         y="48.038399"
         width="401.202"
         height="308.2464"
         id="rect200056" />
    </clipPath>
  </defs>
</svg>
